<?xml version="1.0" encoding="utf-8"?>
<!-- Generator: Adobe Illustrator 21.1.0, SVG Export Plug-In . SVG Version: 6.00 Build 0)  -->
<svg version="1.1" id="Capa_1" xmlns="http://www.w3.org/2000/svg" xmlns:xlink="http://www.w3.org/1999/xlink" x="0px" y="0px"
	 viewBox="0 0 553.8 70.5" style="enable-background:new 0 0 553.8 70.5;" xml:space="preserve">
<style type="text/css">
	.st0{fill:#F6F2EE;}
	.st1{fill:#F2EDE7;}
	.st2{fill:#527983;}
	.st3{fill:#FEFFFF;}
	.st4{fill:#FFFFFF;}
</style>
<g>
	<g>
		<g>
			<path class="st2" d="M266.8,36.9c1.3,0.9,2.2,2.1,2.6,3.6c0.1,0.6,0.2,1.1,0.2,1.7c0.3,1.7,1.3,2.8,2.9,3.1
				c1.6,0.3,3.1-0.8,3.2-2.4c0.2-1.6-1.4-2.8-2.9-2.3c-1.1,0.4-1.5,1.8-0.7,2.7c0.6,0.7,1.7,0.6,2.1-0.2c0.3-0.6-0.1-1.4-0.8-1.3
				c-0.2,0-0.4,0.1-0.4,0.3c-0.1,0.1,0,0.3,0,0.5c-0.2-0.1-0.2-0.2-0.2-0.4c0-0.5,0.5-0.7,1-0.6c0.5,0.2,0.7,0.5,0.8,1
				c0.1,0.5-0.1,1-0.6,1.3c-0.6,0.4-1.3,0.3-1.8-0.1c-0.6-0.4-0.9-1.1-0.8-1.8c0.1-0.8,0.6-1.4,1.5-1.7c0.9-0.3,1.7-0.1,2.4,0.5
				c1.3,1.3,1,3.6-0.6,4.5c-1.7,0.9-4,0.2-4.9-1.6c-0.3-0.7-0.5-1.4-0.5-2.1c-0.1-1.9-1-3.3-2.6-4.4c-1.4-1-2.9-1.5-4.5-1.8
				c-2.2-0.4-4.4-0.8-6.5-1.5c-1.4-0.5-2.8-0.8-4.3-0.7c0,0,0,0-0.1,0c0.7-0.4,1.2-0.9,1.7-1.5c0.9-0.9,1.8-1.8,2.8-2.5
				c1.5-0.9,3.1-1.1,4.7-0.3c1.2,0.5,2.3,1.2,3.3,2.1c1.1,0.9,2.1,1.9,3.2,2.8c1,0.9,2.1,1.6,3.5,1.5c-0.9,0.2-1.7,0.1-2.5-0.2
				c0,0,0,0.1,0,0.1c0.5,0.4,1,0.7,1.5,1.1c-1,0.2-2,0-3-0.2c1.2,0.7,2.4,1.5,3.7,1.9c0.9,0.3,1.8,0.5,2.7,0.4
				c1.4-0.1,2.5-1,2.7-2.3c0.2-0.9-0.1-1.7-0.5-2.5c-0.6-1-1.5-1.6-2.6-2.1c-1.5-0.7-3.2-1.1-4.9-1.4c-0.9-0.2-1.7-0.4-2.5-0.9
				c-1.6-1.2-1.5-3.6,0.3-4.6c-0.2,0.3-0.5,0.5-0.7,0.8c-0.5,0.6-0.7,1.3-0.5,2.1c0.2,0.7,0.7,1.2,1.3,1.6c0.7,0.4,1.6,0.6,2.4,0.8
				c1.7,0.3,3.3,0.7,4.9,1.5c1.2,0.6,2.2,1.4,2.8,2.7c0.4,0.9,0.5,1.8,0.1,2.8c-0.5,1.3-1.7,1.8-3,1.9c-1.4,0.1-2.7-0.3-3.9-0.9
				c-0.7-0.3-1.3-0.7-2-1.1c-0.6-0.4-1.3-0.7-2-0.8C265.6,36.1,266.2,36.4,266.8,36.9z M265.1,33.9c0.4,0,0.8-0.3,0.8-0.8
				c0-0.4-0.4-0.8-0.8-0.8c-0.4,0-0.8,0.3-0.8,0.8C264.3,33.6,264.7,33.9,265.1,33.9z"/>
			<path class="st2" d="M248.7,33.6c0,0,0.1,0,0.1,0c0.4-0.1,0.8-0.2,1.2-0.2c0.8-0.1,1.4-0.5,1.9-1c0.8-0.9,1.7-1.8,2.6-2.6
				c1.3-1.2,2.8-1.7,4.6-1.6c0,0,0.1,0,0.1,0c0,0,0,0,0.1,0c-0.4-0.2-0.8-0.5-1.3-0.7c-1.1-0.5-2.1-1-3.3-1.2
				c-1.5-0.3-2.7,0.2-3.6,1.4c-0.8,1-1.2,2.2-1.4,3.5c-0.1,0.6-0.3,1.3-0.5,1.9C249.2,33.1,248.9,33.3,248.7,33.6
				C248.7,33.6,248.7,33.6,248.7,33.6z"/>
			<path class="st2" d="M248.7,33.6C248.7,33.6,248.7,33.5,248.7,33.6c0.6-0.9,0.8-1.9,0.9-2.9c0.3-2,1.3-3.7,3-4.8
				c0.1,0,0.1-0.1,0.2-0.2c-1.6-0.3-3.1-0.3-4.5,0.4c-1.2,0.6-2.1,1.5-2.3,2.9c-0.1,0.7,0,1.4,0.2,2.1c0.2,0.8,0.5,1.6,0.6,2.5
				c0.1,0.5,0,1,0,1.5c0.6-0.4,1.1-0.9,1.6-1.3C248.6,33.7,248.7,33.6,248.7,33.6C248.7,33.6,248.7,33.6,248.7,33.6z"/>
			<path class="st2" d="M245.7,37.6c0.3-0.8,0.7-1.6,1-2.4c0.2-0.6,0.1-1.2,0-1.7c-0.2-0.8-0.5-1.6-0.7-2.3
				c-0.3-0.9-0.4-1.8-0.1-2.7c0.3-0.8,0.9-1.5,1.5-2.1c0.1-0.1,0.2-0.2,0.3-0.2c-0.4,0.1-1.5,0.5-2.1,1c-1.5,1-2.4,2.4-2.6,4.2
				c-0.1,1.1,0.3,2.1,0.9,3c0.3,0.4,0.6,0.8,0.9,1.2C245.2,36.2,245.6,36.9,245.7,37.6z"/>
			<path class="st2" d="M245.8,39.4c0.1-1.4-0.3-2.7-1.3-3.8c-0.4-0.5-0.8-1-1.1-1.5c-0.9-1.3-1-2.7-0.5-4.2c0-0.1,0.1-0.2,0-0.3
				c-0.2,0.3-0.4,0.5-0.6,0.8c-0.4,0.7-0.8,1.4-1,2.2c-0.4,1.6,0.1,2.8,1.2,3.9c0.4,0.4,0.8,0.7,1.3,1
				C244.7,38,245.4,38.6,245.8,39.4z"/>
			<path class="st2" d="M246.7,41.6c-0.3-0.6-0.5-1.3-0.9-2c-0.3-0.7-0.9-1.2-1.5-1.6c-0.5-0.4-1-0.7-1.5-1.1
				c-0.8-0.6-1.4-1.4-1.7-2.3c-0.3,1.2-0.2,2.9,0.5,3.8c0.5,0.7,1.2,1.2,2,1.6c0.6,0.3,1.3,0.6,1.9,0.9
				C245.9,41.1,246.3,41.4,246.7,41.6z"/>
			<path class="st2" d="M242.2,40.7c0.6,1.1,1.6,1.9,2.6,2.6c1.7,1,3.5,1.5,5.5,1.3c0.3,0,0.7-0.2,1-0.3c0.1,0,0.1-0.1,0.2-0.1
				c0.4-0.2,0.7-0.6,0.6-1c-0.1-0.3-0.4-0.6-0.9-0.7c-0.5,0-0.9,0.1-1.4,0.2c-0.6,0.1-1.1,0.4-1.7,0.5c-1.1,0.2-2.1-0.1-3-0.5
				C244,42.2,243.1,41.6,242.2,40.7z"/>
			<path class="st2" d="M241.3,38.7c0.1,0.3,0.2,0.6,0.3,0.8c1.5,2.2,3.5,3.4,6.2,3.5c0.1,0,0.3,0,0.4-0.1c-0.6-0.2-0.9-0.7-1.4-1.1
				c-0.3-0.3-0.7-0.5-1.1-0.6c-0.6-0.3-1.2-0.5-1.8-0.8c-0.5-0.2-0.9-0.5-1.4-0.8C242.1,39.4,241.8,39.1,241.3,38.7z"/>
			<path class="st2" d="M255.7,34.1c0.1,0.2,0.1,0.3,0.1,0.4c0.8,1.5,1.8,2.9,2.9,4.2c0.2,0.2,0.5,0.4,0.7,0.6
				c0.1,0.1,0.2,0.1,0.3,0.1c0.1,0,0.3,0,0.3-0.1c0.1-0.1,0-0.3,0-0.4c-0.1-0.1-0.2-0.2-0.3-0.3c-1.5-1.1-2.7-2.6-3.7-4.2
				C256,34.1,256,34.1,255.7,34.1z"/>
			<path class="st2" d="M255.1,33.9c0,0.2,0,0.3,0,0.5c0.3,0.9,0.6,1.7,1,2.5c0.4,0.8,0.8,1.6,1.2,2.3c0.1,0.2,0.3,0.4,0.5,0.6
				c0.1,0.1,0.4,0.1,0.5,0c0.2-0.1,0.1-0.3,0-0.5c-0.2-0.3-0.5-0.7-0.8-1c-1-1.3-1.6-2.7-2.2-4.2c0-0.1-0.1-0.2-0.2-0.3
				C255.2,33.9,255.2,33.9,255.1,33.9z"/>
			<path class="st2" d="M256.6,34.4c0,0.1,0.1,0.2,0.1,0.3c1.1,1.2,2.2,2.3,3.6,3.1c0.2,0.1,0.5,0.2,0.8,0.3c0.2,0,0.4,0,0.5-0.2
				c0.1-0.2-0.1-0.3-0.2-0.5c-0.1-0.1-0.2-0.1-0.3-0.2c-1.5-0.6-2.7-1.5-3.9-2.6C257,34.5,256.8,34.4,256.6,34.4
				C256.6,34.3,256.6,34.4,256.6,34.4z"/>
			<path class="st2" d="M254.6,33.7c0,0.1,0,0.2,0,0.3c0.2,1.9,0.5,3.7,1.3,5.4c0.1,0.2,0.2,0.4,0.4,0.5c0.1,0.1,0.2,0.1,0.3,0
				c0.1-0.1,0.1-0.2,0.1-0.3c0-0.1-0.1-0.3-0.1-0.4c-0.8-1.7-1.4-3.4-1.7-5.3c0-0.1-0.1-0.2-0.1-0.3
				C254.7,33.7,254.6,33.7,254.6,33.7z"/>
			<path class="st2" d="M257.5,34.7c0.1,0.1,0.2,0.2,0.4,0.3c1,0.7,2.1,1.3,3.3,1.7c0.2,0.1,0.5,0.1,0.8,0.1c0.1,0,0.3-0.1,0.3-0.2
				c0.1-0.2-0.1-0.3-0.2-0.4c-0.3-0.1-0.7-0.2-1-0.3c-1-0.4-2.1-0.8-3.1-1.3c-0.1,0-0.2-0.1-0.3-0.1
				C257.5,34.6,257.5,34.7,257.5,34.7z"/>
			<path class="st2" d="M251.2,37.1c0.2-1.1-0.2-2.1-1.1-2.8c-0.2-0.2-0.5-0.3-0.8-0.5c-0.1-0.1-0.3,0-0.5,0
				c0.1,0.1,0.1,0.3,0.2,0.4c0.3,0.3,0.7,0.5,1,0.8c0.6,0.4,1,0.9,1.1,1.6C251.2,36.9,251.2,37,251.2,37.1z"/>
			<path class="st2" d="M250.1,37.9c0.3-0.8,0.1-1.5-0.3-2.2c-0.3-0.5-0.7-0.8-1.2-1.1c-0.1-0.1-0.2-0.1-0.3-0.1c-0.1,0-0.2,0-0.3,0
				c0,0.1,0,0.2,0,0.3c0.2,0.2,0.4,0.4,0.6,0.6c0.1,0.1,0.3,0.3,0.4,0.4C249.7,36.3,250.1,37,250.1,37.9z"/>
			<path class="st2" d="M248.9,38.7c0.3-0.6,0.3-1.3,0-1.9c-0.2-0.6-0.6-1.1-1.1-1.6c-0.1-0.1-0.2-0.1-0.2-0.2c-0.1,0-0.3,0-0.4-0.1
				c0,0.1,0,0.3,0.1,0.4c0.2,0.3,0.5,0.6,0.7,0.9c0.5,0.5,0.9,1.1,0.9,1.9C248.9,38.3,248.9,38.5,248.9,38.7z"/>
			<path class="st2" d="M258.9,45.5c0.8-1.1,1.2-2.4,1.4-3.7c0.1-0.6,0.1-1.3,0.1-1.9c0-0.1,0-0.1,0-0.2c-0.1-0.1-0.2-0.2-0.3-0.3
				c-0.1,0.1-0.2,0.2-0.2,0.3c0,0.4,0,0.9,0,1.4c0,1.5-0.4,2.9-1.1,4.2C259,45.4,259,45.4,258.9,45.5
				C258.9,45.5,258.9,45.5,258.9,45.5z"/>
			<path class="st2" d="M252.4,36.4c0.1-0.7-0.1-1.3-0.6-1.9c-0.3-0.4-0.7-0.7-1.2-0.9c-0.1,0-0.1-0.1-0.2,0c-0.1,0-0.3,0-0.4,0.1
				c0.1,0.1,0.1,0.3,0.2,0.3c0.2,0.2,0.5,0.4,0.8,0.5C251.7,35,252.3,35.5,252.4,36.4z"/>
			<path class="st2" d="M247.8,39.4c0.5-1,0.4-1.9-0.2-2.8c-0.1-0.2-0.4-0.4-0.6-0.6c-0.1-0.1-0.2,0-0.3-0.1c0,0.1,0,0.2,0,0.3
				c0.2,0.3,0.3,0.6,0.5,1C247.7,37.8,248,38.5,247.8,39.4z"/>
			<path class="st2" d="M263.1,43.6c0.1-1.8-0.2-3.6-1-5.3c0-0.1-0.1-0.2-0.2-0.3c-0.1-0.1-0.2-0.1-0.3-0.1c0,0.1-0.1,0.2-0.1,0.3
				c0,0,0,0.1,0.1,0.1C262.5,40,263,41.7,263.1,43.6C263,43.6,263.1,43.6,263.1,43.6z"/>
			<path class="st2" d="M265.5,40.9c-0.4-1.5-1.3-2.8-2.4-3.8c-0.1-0.1-0.3-0.2-0.4-0.3c-0.1,0-0.2,0-0.3,0c0,0.1,0,0.2,0.1,0.3
				c0.3,0.3,0.6,0.5,0.9,0.8C264.3,38.7,265,39.7,265.5,40.9z"/>
			<path class="st2" d="M255.4,45.2c0.4-0.4,0.8-0.8,1.2-1.2c0.8-1,1.5-2.2,1.9-3.5c0-0.1,0.1-0.1,0-0.2c0-0.1-0.1-0.2-0.1-0.3
				c-0.1,0.1-0.2,0.1-0.2,0.2c-0.1,0.3-0.1,0.5-0.2,0.8c-0.5,1.6-1.3,2.9-2.5,4C255.4,45,255.4,45,255.4,45.2
				C255.4,45.1,255.4,45.1,255.4,45.2z"/>
			<path class="st2" d="M253.2,43.5c0.6-0.2,1.1-0.5,1.5-0.9c0.7-0.6,1.2-1.2,1.7-2c0-0.1,0.1-0.1,0.1-0.2c0-0.1,0-0.1,0-0.2
				c-0.1,0-0.1,0-0.2,0.1c0,0,0,0.1-0.1,0.1C255.5,41.6,254.5,42.6,253.2,43.5C253.3,43.4,253.2,43.5,253.2,43.5z"/>
			<path class="st2" d="M246.6,39.5c0.4-0.5,0.5-1.1,0.4-1.7c-0.1-0.3-0.3-0.7-0.4-1c0-0.1-0.2-0.1-0.3-0.1c0,0.1-0.1,0.2,0,0.3
				c0,0.2,0.1,0.3,0.2,0.5C246.7,38.2,246.9,38.8,246.6,39.5z"/>
		</g>
	</g>
	<g>
		<g>
			<path class="st2" d="M290.3,35.7c-0.7,0.2-1.4,0.5-2,0.8c-0.7,0.4-1.3,0.8-2,1.1c-1.2,0.6-2.5,0.9-3.9,0.9
				c-1.3-0.1-2.5-0.6-3-1.9c-0.4-0.9-0.3-1.9,0.1-2.8c0.5-1.3,1.6-2.1,2.8-2.7c1.5-0.8,3.2-1.2,4.9-1.5c0.8-0.2,1.6-0.3,2.4-0.8
				c0.6-0.4,1.1-0.9,1.3-1.6c0.2-0.8,0-1.5-0.5-2.1c-0.2-0.3-0.4-0.5-0.7-0.8c1.8,0.9,1.9,3.4,0.3,4.6c-0.7,0.5-1.6,0.7-2.5,0.9
				c-1.7,0.3-3.3,0.7-4.9,1.4c-1,0.5-1.9,1.1-2.6,2.1c-0.5,0.8-0.7,1.6-0.5,2.5c0.2,1.3,1.3,2.2,2.7,2.3c0.9,0.1,1.8-0.1,2.7-0.4
				c1.3-0.4,2.5-1.2,3.7-1.9c-1,0.2-2,0.4-3,0.2c0.5-0.4,1-0.8,1.5-1.1c0,0,0-0.1,0-0.1c-0.8,0.3-1.6,0.4-2.5,0.2
				c1.4,0.1,2.5-0.6,3.5-1.5c1-1,2.1-1.9,3.2-2.8c1-0.8,2.1-1.5,3.3-2.1c1.6-0.7,3.2-0.6,4.7,0.3c1.1,0.7,2,1.6,2.8,2.5
				c0.5,0.5,1,1.1,1.7,1.5c0,0-0.1,0-0.1,0c-1.5-0.1-2.9,0.2-4.3,0.7c-2.1,0.7-4.3,1.1-6.5,1.5c-1.6,0.3-3.2,0.9-4.5,1.8
				c-1.5,1.1-2.4,2.5-2.6,4.4c0,0.7-0.2,1.4-0.5,2.1c-0.9,1.8-3.2,2.5-4.9,1.6c-1.6-0.9-2-3.2-0.6-4.5c0.7-0.7,1.5-0.8,2.4-0.5
				c0.8,0.3,1.3,0.8,1.5,1.7c0.1,0.8-0.1,1.4-0.8,1.8c-0.6,0.4-1.2,0.5-1.8,0.1c-0.5-0.3-0.7-0.7-0.6-1.3c0.1-0.5,0.3-0.8,0.8-1
				c0.5-0.2,1,0.1,1,0.6c0,0.2,0,0.3-0.2,0.4c0-0.1,0.1-0.3,0-0.5c-0.1-0.1-0.3-0.3-0.4-0.3c-0.6-0.1-1.1,0.7-0.8,1.3
				c0.4,0.7,1.5,0.8,2.1,0.2c0.8-0.8,0.4-2.3-0.7-2.7c-1.5-0.5-3,0.7-2.9,2.3c0.2,1.6,1.6,2.7,3.2,2.4c1.6-0.3,2.7-1.3,2.9-3.1
				c0.1-0.6,0.1-1.2,0.2-1.7c0.3-1.6,1.3-2.7,2.6-3.6C289,36.4,289.6,36.1,290.3,35.7z M290.8,33.2c0-0.4-0.3-0.8-0.8-0.8
				c-0.4,0-0.8,0.3-0.8,0.8c0,0.4,0.4,0.8,0.8,0.8C290.5,33.9,290.8,33.6,290.8,33.2z"/>
			<path class="st2" d="M306.4,33.6c0,0-0.1,0-0.1,0c-0.4-0.1-0.8-0.2-1.2-0.2c-0.8-0.1-1.4-0.5-1.9-1c-0.8-0.9-1.7-1.8-2.6-2.6
				c-1.3-1.2-2.8-1.7-4.6-1.6c0,0-0.1,0-0.1,0c0,0,0,0-0.1,0c0.4-0.2,0.8-0.5,1.3-0.7c1.1-0.5,2.1-1,3.3-1.2
				c1.5-0.3,2.7,0.2,3.6,1.4c0.8,1,1.2,2.2,1.4,3.5c0.1,0.6,0.3,1.3,0.5,1.9C306,33.1,306.3,33.3,306.4,33.6
				C306.4,33.6,306.4,33.6,306.4,33.6z"/>
			<path class="st2" d="M306.4,33.6C306.4,33.6,306.5,33.5,306.4,33.6c-0.6-0.9-0.8-1.9-0.9-2.9c-0.3-2-1.3-3.7-3-4.8
				c-0.1,0-0.1-0.1-0.2-0.2c1.6-0.3,3.1-0.3,4.5,0.4c1.2,0.6,2.1,1.5,2.3,2.9c0.1,0.7,0,1.4-0.2,2.1c-0.2,0.8-0.5,1.6-0.6,2.5
				c-0.1,0.5,0,1,0,1.5c-0.6-0.4-1.1-0.9-1.6-1.3C306.6,33.7,306.5,33.6,306.4,33.6C306.4,33.6,306.4,33.6,306.4,33.6z"/>
			<path class="st2" d="M309.4,37.6c-0.3-0.8-0.7-1.6-1-2.4c-0.2-0.6-0.1-1.2,0-1.7c0.2-0.8,0.5-1.6,0.7-2.3
				c0.3-0.9,0.4-1.8,0.1-2.7c-0.3-0.8-0.9-1.5-1.5-2.1c-0.1-0.1-0.2-0.2-0.3-0.2c0.4,0.1,1.5,0.5,2.1,1c1.5,1,2.4,2.4,2.6,4.2
				c0.1,1.1-0.3,2.1-0.9,3c-0.3,0.4-0.6,0.8-0.9,1.2C310,36.2,309.6,36.9,309.4,37.6z"/>
			<path class="st2" d="M309.4,39.4c-0.1-1.4,0.3-2.7,1.3-3.8c0.4-0.5,0.8-1,1.1-1.5c0.9-1.3,1-2.7,0.5-4.2c0-0.1-0.1-0.2,0-0.3
				c0.2,0.3,0.4,0.5,0.6,0.8c0.4,0.7,0.8,1.4,1,2.2c0.4,1.6-0.1,2.8-1.2,3.9c-0.4,0.4-0.8,0.7-1.3,1C310.5,38,309.8,38.6,309.4,39.4
				z"/>
			<path class="st2" d="M308.5,41.6c0.3-0.6,0.5-1.3,0.9-2c0.3-0.7,0.9-1.2,1.5-1.6c0.5-0.4,1-0.7,1.5-1.1c0.8-0.6,1.4-1.4,1.7-2.3
				c0.3,1.2,0.2,2.9-0.5,3.8c-0.5,0.7-1.2,1.2-2,1.6c-0.6,0.3-1.3,0.6-1.9,0.9C309.3,41.1,308.9,41.4,308.5,41.6z"/>
			<path class="st2" d="M312.9,40.7c-0.6,1.1-1.6,1.9-2.6,2.6c-1.7,1-3.5,1.5-5.5,1.3c-0.3,0-0.7-0.2-1-0.3c-0.1,0-0.1-0.1-0.2-0.1
				c-0.4-0.2-0.7-0.6-0.6-1c0.1-0.3,0.4-0.6,0.9-0.7c0.5,0,0.9,0.1,1.4,0.2c0.6,0.1,1.1,0.4,1.7,0.5c1.1,0.2,2.1-0.1,3-0.5
				C311.1,42.2,312.1,41.6,312.9,40.7z"/>
			<path class="st2" d="M313.8,38.7c-0.1,0.3-0.2,0.6-0.3,0.8c-1.5,2.2-3.5,3.4-6.2,3.5c-0.1,0-0.3,0-0.4-0.1
				c0.6-0.2,0.9-0.7,1.4-1.1c0.3-0.3,0.7-0.5,1.1-0.6c0.6-0.3,1.2-0.5,1.8-0.8c0.5-0.2,0.9-0.5,1.4-0.8
				C313,39.4,313.4,39.1,313.8,38.7z"/>
			<path class="st2" d="M299.5,34.1c-0.1,0.2-0.1,0.3-0.1,0.4c-0.8,1.5-1.8,2.9-2.9,4.2c-0.2,0.2-0.5,0.4-0.7,0.6
				c-0.1,0.1-0.2,0.1-0.3,0.1c-0.1,0-0.3,0-0.3-0.1c-0.1-0.1,0-0.3,0-0.4c0.1-0.1,0.2-0.2,0.3-0.3c1.5-1.1,2.7-2.6,3.7-4.2
				C299.2,34.1,299.2,34.1,299.5,34.1z"/>
			<path class="st2" d="M300.1,33.9c0,0.2,0,0.3,0,0.5c-0.3,0.9-0.6,1.7-1,2.5c-0.4,0.8-0.8,1.6-1.2,2.3c-0.1,0.2-0.3,0.4-0.5,0.6
				c-0.1,0.1-0.4,0.1-0.5,0c-0.2-0.1-0.1-0.3,0-0.5c0.2-0.3,0.5-0.7,0.8-1c1-1.3,1.6-2.7,2.2-4.2c0-0.1,0.1-0.2,0.2-0.3
				C300,33.9,300,33.9,300.1,33.9z"/>
			<path class="st2" d="M298.6,34.4c0,0.1-0.1,0.2-0.1,0.3c-1.1,1.2-2.2,2.3-3.6,3.1c-0.2,0.1-0.5,0.2-0.8,0.3c-0.2,0-0.4,0-0.5-0.2
				c-0.1-0.2,0.1-0.3,0.2-0.5c0.1-0.1,0.2-0.1,0.3-0.2c1.5-0.6,2.7-1.5,3.9-2.6C298.2,34.5,298.4,34.4,298.6,34.4
				C298.6,34.3,298.6,34.4,298.6,34.4z"/>
			<path class="st2" d="M300.6,33.7c0,0.1,0,0.2,0,0.3c-0.2,1.9-0.5,3.7-1.3,5.4c-0.1,0.2-0.2,0.4-0.4,0.5c-0.1,0.1-0.2,0.1-0.3,0
				c-0.1-0.1-0.1-0.2-0.1-0.3c0-0.1,0.1-0.3,0.1-0.4c0.8-1.7,1.4-3.4,1.7-5.3c0-0.1,0.1-0.2,0.1-0.3
				C300.5,33.7,300.6,33.7,300.6,33.7z"/>
			<path class="st2" d="M297.7,34.7c-0.1,0.1-0.2,0.2-0.4,0.3c-1,0.7-2.1,1.3-3.3,1.7c-0.2,0.1-0.5,0.1-0.8,0.1
				c-0.1,0-0.3-0.1-0.3-0.2c-0.1-0.2,0.1-0.3,0.2-0.4c0.3-0.1,0.7-0.2,1-0.3c1-0.4,2.1-0.8,3.1-1.3c0.1,0,0.2-0.1,0.3-0.1
				C297.6,34.6,297.7,34.7,297.7,34.7z"/>
			<path class="st2" d="M304,37.1c-0.2-1.1,0.2-2.1,1.1-2.8c0.2-0.2,0.5-0.3,0.8-0.5c0.1-0.1,0.3,0,0.5,0c-0.1,0.1-0.1,0.3-0.2,0.4
				c-0.3,0.3-0.7,0.5-1,0.8c-0.6,0.4-1,0.9-1.1,1.6C304,36.9,304,37,304,37.1z"/>
			<path class="st2" d="M305.1,37.9c-0.3-0.8-0.1-1.5,0.3-2.2c0.3-0.5,0.7-0.8,1.2-1.1c0.1-0.1,0.2-0.1,0.3-0.1c0.1,0,0.2,0,0.3,0
				c0,0.1,0,0.2,0,0.3c-0.2,0.2-0.4,0.4-0.6,0.6c-0.1,0.1-0.3,0.3-0.4,0.4C305.5,36.3,305.1,37,305.1,37.9z"/>
			<path class="st2" d="M306.3,38.7c-0.3-0.6-0.3-1.3,0-1.9c0.2-0.6,0.6-1.1,1.1-1.6c0.1-0.1,0.2-0.1,0.2-0.2c0.1,0,0.3,0,0.4-0.1
				c0,0.1,0,0.3-0.1,0.4c-0.2,0.3-0.5,0.6-0.7,0.9c-0.5,0.5-0.9,1.1-0.9,1.9C306.2,38.3,306.3,38.5,306.3,38.7z"/>
			<path class="st2" d="M296.2,45.5c-0.8-1.1-1.2-2.4-1.4-3.7c-0.1-0.6-0.1-1.3-0.1-1.9c0-0.1,0-0.1,0-0.2c0.1-0.1,0.2-0.2,0.3-0.3
				c0.1,0.1,0.2,0.2,0.2,0.3c0,0.4,0,0.9,0,1.4c0,1.5,0.4,2.9,1.1,4.2C296.2,45.4,296.2,45.4,296.2,45.5
				C296.2,45.5,296.2,45.5,296.2,45.5z"/>
			<path class="st2" d="M302.8,36.4c-0.1-0.7,0.1-1.3,0.6-1.9c0.3-0.4,0.7-0.7,1.2-0.9c0.1,0,0.1-0.1,0.2,0c0.1,0,0.3,0,0.4,0.1
				c-0.1,0.1-0.1,0.3-0.2,0.3c-0.2,0.2-0.5,0.4-0.8,0.5C303.5,35,302.9,35.5,302.8,36.4z"/>
			<path class="st2" d="M307.4,39.4c-0.5-1-0.4-1.9,0.2-2.8c0.1-0.2,0.4-0.4,0.6-0.6c0.1-0.1,0.2,0,0.3-0.1c0,0.1,0,0.2,0,0.3
				c-0.2,0.3-0.3,0.6-0.5,1C307.5,37.8,307.2,38.5,307.4,39.4z"/>
			<path class="st2" d="M292.1,43.6c-0.1-1.8,0.2-3.6,1-5.3c0-0.1,0.1-0.2,0.2-0.3c0.1-0.1,0.2-0.1,0.3-0.1c0,0.1,0.1,0.2,0.1,0.3
				c0,0,0,0.1-0.1,0.1C292.7,40,292.2,41.7,292.1,43.6C292.1,43.6,292.1,43.6,292.1,43.6z"/>
			<path class="st2" d="M289.7,40.9c0.4-1.5,1.3-2.8,2.4-3.8c0.1-0.1,0.3-0.2,0.4-0.3c0.1,0,0.2,0,0.3,0c0,0.1,0,0.2-0.1,0.3
				c-0.3,0.3-0.6,0.5-0.9,0.8C290.9,38.7,290.2,39.7,289.7,40.9z"/>
			<path class="st2" d="M299.8,45.2c-0.4-0.4-0.8-0.8-1.2-1.2c-0.8-1-1.5-2.2-1.9-3.5c0-0.1-0.1-0.1,0-0.2c0-0.1,0.1-0.2,0.1-0.3
				c0.1,0.1,0.2,0.1,0.2,0.2c0.1,0.3,0.1,0.5,0.2,0.8c0.5,1.6,1.3,2.9,2.5,4C299.8,45,299.8,45,299.8,45.2
				C299.8,45.1,299.8,45.1,299.8,45.2z"/>
			<path class="st2" d="M302,43.5c-0.6-0.2-1.1-0.5-1.5-0.9c-0.7-0.6-1.2-1.2-1.7-2c0-0.1-0.1-0.1-0.1-0.2c0-0.1,0-0.1,0-0.2
				c0.1,0,0.1,0,0.2,0.1c0,0,0,0.1,0.1,0.1C299.7,41.6,300.7,42.6,302,43.5C301.9,43.4,301.9,43.5,302,43.5z"/>
			<path class="st2" d="M308.6,39.5c-0.4-0.5-0.5-1.1-0.4-1.7c0.1-0.3,0.3-0.7,0.4-1c0-0.1,0.2-0.1,0.3-0.1c0,0.1,0.1,0.2,0,0.3
				c0,0.2-0.1,0.3-0.2,0.5C308.4,38.2,308.3,38.8,308.6,39.5z"/>
		</g>
	</g>
	<g>
		<path class="st2" d="M19.5,40.9c1.5,0.1,2.9,0.4,4.4,0.4c43.3,0,86.5,0,129.8,0c5.2,0,10.6-1.1,14.9,3.2c0-2.9,0-5.4,0-8.3
			c-4.4,4.4-10,3.2-15.3,3.2c-43.1,0-86.3,0-129.4,0c-1.4,0-2.9,0-4.3,0C19.6,40,19.6,40.4,19.5,40.9z"/>
		<path class="st2" d="M171.1,38.3c-2.1,5.2,2.9,10.3,7.6,10.9c6.2,0.7,11.7-1.2,16.3-5.1c4.5-3.9,8.4-8.6,13-12.4
			c3.5-2.9,7.5-5.5,11.6-7c5.6-2.1,12.1,0.9,14.9,5.8c2.7,4.6,2.2,10.3-1.5,14.1c-2.9,3-6.3,4.6-10.6,3.6c-3.5-0.9-6-2.7-7-6.4
			c-0.9-3.3,0.2-6,3-7.2c2.8-1.3,6-0.3,7.9,2.4c0.8,1.1,1.4,2.3,2.2,3.4c0.1,0.2,0.6,0.2,0.9,0.2c1-3.4-0.9-6.6-4.6-7.9
			c-3.4-1.2-7.2,0-9.3,2.8c-2.1,2.9-1.8,7.1,0.7,10.2c3,3.7,7.8,4.9,12.8,3.4c5-1.6,8.8-6.2,9.2-11.4c0.7-9.9-8.3-17.8-18.3-15.8
			c-6,1.2-10.7,4.7-14.9,8.9c-3.9,4-7.6,8.2-11.7,11.9c-2.1,1.9-4.8,3.2-7.6,4.4c4.3-3.2,7.2-7.1,6.8-12.6c-0.1-1.6-1-3.1-1.6-4.7
			c-0.5,0.1-1,0.2-1.4,0.3c0.1,1.2,0,2.5,0.2,3.7c0.9,5.3-0.7,9.4-4.8,12C178.1,50.1,172.2,47.2,171.1,38.3z"/>
		<path class="st2" d="M196.7,29.2c-0.5,3.9-1,7.3-1.4,10.5C198.9,37.3,200.1,31.5,196.7,29.2z"/>
	</g>
	<g>
		<path class="st2" d="M535.5,40.9c-1.5,0.1-2.9,0.4-4.4,0.4c-43.3,0-86.5,0-129.8,0c-5.2,0-10.6-1.1-14.9,3.2c0-2.9,0-5.4,0-8.3
			c4.4,4.4,10,3.2,15.3,3.2c43.1,0,86.3,0,129.4,0c1.4,0,2.9,0,4.3,0C535.4,40,535.5,40.4,535.5,40.9z"/>
		<path class="st2" d="M384,38.3c2.1,5.2-2.9,10.3-7.6,10.9c-6.2,0.7-11.7-1.2-16.3-5.1c-4.5-3.9-8.4-8.6-13-12.4
			c-3.5-2.9-7.5-5.5-11.6-7c-5.6-2.1-12.1,0.9-14.9,5.8c-2.7,4.6-2.2,10.3,1.5,14.1c2.9,3,6.3,4.6,10.6,3.6c3.5-0.9,6-2.7,7-6.4
			c0.9-3.3-0.2-6-3-7.2c-2.8-1.3-6-0.3-7.9,2.4c-0.8,1.1-1.4,2.3-2.2,3.4c-0.1,0.2-0.6,0.2-0.9,0.2c-1-3.4,0.9-6.6,4.6-7.9
			c3.4-1.2,7.2,0,9.3,2.8c2.1,2.9,1.8,7.1-0.7,10.2c-3,3.7-7.8,4.9-12.8,3.4c-5-1.6-8.8-6.2-9.2-11.4C316,27.7,325,19.9,335,21.9
			c6,1.2,10.7,4.7,14.9,8.9c3.9,4,7.6,8.2,11.7,11.9c2.1,1.9,4.8,3.2,7.6,4.4c-4.3-3.2-7.2-7.1-6.8-12.6c0.1-1.6,1-3.1,1.6-4.7
			c0.5,0.1,1,0.2,1.4,0.3c-0.1,1.2,0,2.5-0.2,3.7c-0.9,5.3,0.7,9.4,4.8,12C376.9,50.1,382.8,47.2,384,38.3z"/>
		<path class="st2" d="M358.4,29.2c0.5,3.9,1,7.3,1.4,10.5C356.1,37.3,355,31.5,358.4,29.2z"/>
	</g>
</g>
</svg>
