<?xml version="1.0" encoding="utf-8"?>
<!-- Generator: Adobe Illustrator 21.1.0, SVG Export Plug-In . SVG Version: 6.00 Build 0)  -->
<svg version="1.1" id="Capa_1" xmlns="http://www.w3.org/2000/svg" xmlns:xlink="http://www.w3.org/1999/xlink" x="0px" y="0px"
	 viewBox="0 0 543.1 118.2" style="enable-background:new 0 0 543.1 118.2;" xml:space="preserve">
<style type="text/css">
	.st0{fill:#F6F2EE;}
	.st1{fill:#F2EDE7;}
	.st2{fill:#527983;}
	.st3{fill:#FEFFFF;}
	.st4{fill:#FFFFFF;}
</style>
<g>
	<g>
		<g>
			<g>
				<path class="st0" d="M263.1,54.9c1.3,0.9,2.2,2.1,2.6,3.6c0.1,0.6,0.2,1.1,0.2,1.7c0.3,1.7,1.3,2.8,2.9,3.1
					c1.6,0.3,3.1-0.8,3.2-2.4c0.2-1.6-1.4-2.8-2.9-2.3c-1.1,0.4-1.5,1.8-0.7,2.7c0.6,0.7,1.7,0.6,2.1-0.2c0.3-0.6-0.1-1.4-0.8-1.3
					c-0.2,0-0.4,0.1-0.4,0.3c-0.1,0.1,0,0.3,0,0.5c-0.2-0.1-0.2-0.2-0.2-0.4c0-0.5,0.5-0.7,1-0.6c0.5,0.2,0.7,0.5,0.8,1
					c0.1,0.5-0.1,1-0.6,1.3c-0.6,0.4-1.3,0.3-1.8-0.1c-0.6-0.4-0.9-1.1-0.8-1.8c0.1-0.8,0.6-1.4,1.5-1.7c0.9-0.3,1.7-0.1,2.4,0.5
					c1.3,1.3,1,3.6-0.6,4.5c-1.7,0.9-4,0.2-4.9-1.6c-0.3-0.7-0.5-1.4-0.5-2.1c-0.1-1.9-1-3.3-2.6-4.4c-1.4-1-2.9-1.5-4.5-1.8
					c-2.2-0.4-4.4-0.8-6.5-1.5c-1.4-0.5-2.8-0.8-4.3-0.7c0,0,0,0-0.1,0c0.7-0.4,1.2-0.9,1.7-1.5c0.9-0.9,1.8-1.8,2.8-2.5
					c1.5-0.9,3.1-1.1,4.7-0.3c1.2,0.5,2.3,1.2,3.3,2.1c1.1,0.9,2.1,1.9,3.2,2.8c1,0.9,2.1,1.6,3.5,1.5c-0.9,0.2-1.7,0.1-2.5-0.2
					c0,0,0,0.1,0,0.1c0.5,0.4,1,0.7,1.5,1.1c-1,0.2-2,0-3-0.2c1.2,0.7,2.4,1.5,3.7,1.9c0.9,0.3,1.8,0.5,2.7,0.4
					c1.4-0.1,2.5-1,2.7-2.3c0.2-0.9-0.1-1.7-0.5-2.5c-0.6-1-1.5-1.6-2.6-2.1c-1.5-0.7-3.2-1.1-4.9-1.4c-0.9-0.2-1.7-0.4-2.5-0.9
					c-1.6-1.2-1.5-3.6,0.3-4.6c-0.2,0.3-0.5,0.5-0.7,0.8c-0.5,0.6-0.7,1.3-0.5,2.1c0.2,0.7,0.7,1.2,1.3,1.6c0.7,0.4,1.6,0.6,2.4,0.8
					c1.7,0.3,3.3,0.7,4.9,1.5c1.2,0.6,2.2,1.4,2.8,2.7c0.4,0.9,0.5,1.8,0.1,2.8c-0.5,1.3-1.7,1.8-3,1.9c-1.4,0.1-2.7-0.3-3.9-0.9
					c-0.7-0.3-1.3-0.7-2-1.1c-0.6-0.4-1.3-0.7-2-0.8C261.9,54.1,262.5,54.4,263.1,54.9z M261.4,51.9c0.4,0,0.8-0.3,0.8-0.8
					c0-0.4-0.4-0.8-0.8-0.8c-0.4,0-0.8,0.3-0.8,0.8C260.7,51.6,261,51.9,261.4,51.9z"/>
				<path class="st0" d="M245.1,51.6c0,0,0.1,0,0.1,0c0.4-0.1,0.8-0.2,1.2-0.2c0.8-0.1,1.4-0.5,1.9-1c0.8-0.9,1.7-1.8,2.6-2.6
					c1.3-1.2,2.8-1.7,4.6-1.6c0,0,0.1,0,0.1,0c0,0,0,0,0.1,0c-0.4-0.2-0.8-0.5-1.3-0.7c-1.1-0.5-2.1-1-3.3-1.2
					c-1.5-0.3-2.7,0.2-3.6,1.4c-0.8,1-1.2,2.2-1.4,3.5c-0.1,0.6-0.3,1.3-0.5,1.9C245.5,51.1,245.2,51.3,245.1,51.6
					C245,51.6,245.1,51.6,245.1,51.6z"/>
				<path class="st0" d="M245,51.6C245,51.5,245,51.5,245,51.6c0.6-0.9,0.8-1.9,0.9-2.9c0.3-2,1.3-3.7,3-4.8c0.1,0,0.1-0.1,0.2-0.2
					c-1.6-0.3-3.1-0.3-4.5,0.4c-1.2,0.6-2.1,1.5-2.3,2.9c-0.1,0.7,0,1.4,0.2,2.1c0.2,0.8,0.5,1.6,0.6,2.5c0.1,0.5,0,1,0,1.5
					c0.6-0.4,1.1-0.9,1.6-1.3C244.9,51.7,245,51.6,245,51.6C245.1,51.6,245,51.6,245,51.6z"/>
				<path class="st0" d="M242,55.6c0.3-0.8,0.7-1.6,1-2.4c0.2-0.6,0.1-1.2,0-1.7c-0.2-0.8-0.5-1.6-0.7-2.3c-0.3-0.9-0.4-1.8-0.1-2.7
					c0.3-0.8,0.9-1.5,1.5-2.1c0.1-0.1,0.2-0.2,0.3-0.2c-0.4,0.1-1.5,0.5-2.1,1c-1.5,1-2.4,2.4-2.6,4.2c-0.1,1.1,0.3,2.1,0.9,3
					c0.3,0.4,0.6,0.8,0.9,1.2C241.5,54.2,241.9,54.9,242,55.6z"/>
				<path class="st0" d="M242.1,57.4c0.1-1.4-0.3-2.7-1.3-3.8c-0.4-0.5-0.8-1-1.1-1.5c-0.9-1.3-1-2.7-0.5-4.2c0-0.1,0.1-0.2,0-0.3
					c-0.2,0.3-0.4,0.5-0.6,0.8c-0.4,0.7-0.8,1.4-1,2.2c-0.4,1.6,0.1,2.8,1.2,3.9c0.4,0.4,0.8,0.7,1.3,1
					C241,56,241.7,56.6,242.1,57.4z"/>
				<path class="st0" d="M243,59.6c-0.3-0.6-0.5-1.3-0.9-2c-0.3-0.7-0.9-1.2-1.5-1.6c-0.5-0.4-1-0.7-1.5-1.1
					c-0.8-0.6-1.4-1.4-1.7-2.3c-0.3,1.2-0.2,2.9,0.5,3.8c0.5,0.7,1.2,1.2,2,1.6c0.6,0.3,1.3,0.6,1.9,0.9
					C242.2,59.1,242.6,59.4,243,59.6z"/>
				<path class="st0" d="M238.6,58.7c0.6,1.1,1.6,1.9,2.6,2.6c1.7,1,3.5,1.5,5.5,1.3c0.3,0,0.7-0.2,1-0.3c0.1,0,0.1-0.1,0.2-0.1
					c0.4-0.2,0.7-0.6,0.6-1c-0.1-0.3-0.4-0.6-0.9-0.7c-0.5,0-0.9,0.1-1.4,0.2c-0.6,0.1-1.1,0.4-1.7,0.5c-1.1,0.2-2.1-0.1-3-0.5
					C240.4,60.2,239.4,59.6,238.6,58.7z"/>
				<path class="st0" d="M237.6,56.7c0.1,0.3,0.2,0.6,0.3,0.8c1.5,2.2,3.5,3.4,6.2,3.5c0.1,0,0.3,0,0.4-0.1
					c-0.6-0.2-0.9-0.7-1.4-1.1c-0.3-0.3-0.7-0.5-1.1-0.6c-0.6-0.3-1.2-0.5-1.8-0.8c-0.5-0.2-0.9-0.5-1.4-0.8
					C238.5,57.4,238.1,57.1,237.6,56.7z"/>
				<path class="st0" d="M252,52.1c0.1,0.2,0.1,0.3,0.1,0.4c0.8,1.5,1.8,2.9,2.9,4.2c0.2,0.2,0.5,0.4,0.7,0.6
					c0.1,0.1,0.2,0.1,0.3,0.1c0.1,0,0.3,0,0.3-0.1c0.1-0.1,0-0.3,0-0.4c-0.1-0.1-0.2-0.2-0.3-0.3c-1.5-1.1-2.7-2.6-3.7-4.2
					C252.3,52.1,252.3,52.1,252,52.1z"/>
				<path class="st0" d="M251.4,51.9c0,0.2,0,0.3,0,0.5c0.3,0.9,0.6,1.7,1,2.5c0.4,0.8,0.8,1.6,1.2,2.3c0.1,0.2,0.3,0.4,0.5,0.6
					c0.1,0.1,0.4,0.1,0.5,0c0.2-0.1,0.1-0.3,0-0.5c-0.2-0.3-0.5-0.7-0.8-1c-1-1.3-1.6-2.7-2.2-4.2c0-0.1-0.1-0.2-0.2-0.3
					C251.5,51.9,251.5,51.9,251.4,51.9z"/>
				<path class="st0" d="M252.9,52.4c0,0.1,0.1,0.2,0.1,0.3c1.1,1.2,2.2,2.3,3.6,3.1c0.2,0.1,0.5,0.2,0.8,0.3c0.2,0,0.4,0,0.5-0.2
					c0.1-0.2-0.1-0.3-0.2-0.5c-0.1-0.1-0.2-0.1-0.3-0.2c-1.5-0.6-2.7-1.5-3.9-2.6C253.3,52.5,253.1,52.4,252.9,52.4
					C252.9,52.3,252.9,52.4,252.9,52.4z"/>
				<path class="st0" d="M250.9,51.7c0,0.1,0,0.2,0,0.3c0.2,1.9,0.5,3.7,1.3,5.4c0.1,0.2,0.2,0.4,0.4,0.5c0.1,0.1,0.2,0.1,0.3,0
					c0.1-0.1,0.1-0.2,0.1-0.3c0-0.1-0.1-0.3-0.1-0.4c-0.8-1.7-1.4-3.4-1.7-5.3c0-0.1-0.1-0.2-0.1-0.3
					C251,51.7,250.9,51.7,250.9,51.7z"/>
				<path class="st0" d="M253.8,52.7c0.1,0.1,0.2,0.2,0.4,0.3c1,0.7,2.1,1.3,3.3,1.7c0.2,0.1,0.5,0.1,0.8,0.1c0.1,0,0.3-0.1,0.3-0.2
					c0.1-0.2-0.1-0.3-0.2-0.4c-0.3-0.1-0.7-0.2-1-0.3c-1-0.4-2.1-0.8-3.1-1.3c-0.1,0-0.2-0.1-0.3-0.1
					C253.9,52.6,253.8,52.7,253.8,52.7z"/>
				<path class="st0" d="M247.5,55.1c0.2-1.1-0.2-2.1-1.1-2.8c-0.2-0.2-0.5-0.3-0.8-0.5c-0.1-0.1-0.3,0-0.5,0
					c0.1,0.1,0.1,0.3,0.2,0.4c0.3,0.3,0.7,0.5,1,0.8c0.6,0.4,1,0.9,1.1,1.6C247.5,54.9,247.5,55,247.5,55.1z"/>
				<path class="st0" d="M246.4,55.9c0.3-0.8,0.1-1.5-0.3-2.2c-0.3-0.5-0.7-0.8-1.2-1.1c-0.1-0.1-0.2-0.1-0.3-0.1
					c-0.1,0-0.2,0-0.3,0c0,0.1,0,0.2,0,0.3c0.2,0.2,0.4,0.4,0.6,0.6c0.1,0.1,0.3,0.3,0.4,0.4C246,54.3,246.4,55,246.4,55.9z"/>
				<path class="st0" d="M245.2,56.7c0.3-0.6,0.3-1.3,0-1.9c-0.2-0.6-0.6-1.1-1.1-1.6c-0.1-0.1-0.2-0.1-0.2-0.2
					c-0.1,0-0.3,0-0.4-0.1c0,0.1,0,0.3,0.1,0.4c0.2,0.3,0.5,0.6,0.7,0.9c0.5,0.5,0.9,1.1,0.9,1.9C245.2,56.3,245.2,56.5,245.2,56.7z
					"/>
				<path class="st0" d="M255.2,63.5c0.8-1.1,1.2-2.4,1.4-3.7c0.1-0.6,0.1-1.3,0.1-1.9c0-0.1,0-0.1,0-0.2c-0.1-0.1-0.2-0.2-0.3-0.3
					c-0.1,0.1-0.2,0.2-0.2,0.3c0,0.4,0,0.9,0,1.4c0,1.5-0.4,2.9-1.1,4.2C255.3,63.3,255.3,63.4,255.2,63.5
					C255.2,63.5,255.2,63.5,255.2,63.5z"/>
				<path class="st0" d="M248.7,54.4c0.1-0.7-0.1-1.3-0.6-1.9c-0.3-0.4-0.7-0.7-1.2-0.9c-0.1,0-0.1-0.1-0.2,0c-0.1,0-0.3,0-0.4,0.1
					c0.1,0.1,0.1,0.3,0.2,0.3c0.2,0.2,0.5,0.4,0.8,0.5C248,53,248.6,53.5,248.7,54.4z"/>
				<path class="st0" d="M244.1,57.4c0.5-1,0.4-1.9-0.2-2.8c-0.1-0.2-0.4-0.4-0.6-0.6c-0.1-0.1-0.2,0-0.3-0.1c0,0.1,0,0.2,0,0.3
					c0.2,0.3,0.3,0.6,0.5,1C244,55.8,244.3,56.5,244.1,57.4z"/>
				<path class="st0" d="M259.4,61.6c0.1-1.8-0.2-3.6-1-5.3c0-0.1-0.1-0.2-0.2-0.3c-0.1-0.1-0.2-0.1-0.3-0.1c0,0.1-0.1,0.2-0.1,0.3
					c0,0,0,0.1,0.1,0.1C258.8,58,259.3,59.7,259.4,61.6C259.4,61.6,259.4,61.6,259.4,61.6z"/>
				<path class="st0" d="M261.8,58.9c-0.4-1.5-1.3-2.8-2.4-3.8c-0.1-0.1-0.3-0.2-0.4-0.3c-0.1,0-0.2,0-0.3,0c0,0.1,0,0.2,0.1,0.3
					c0.3,0.3,0.6,0.5,0.9,0.8C260.6,56.7,261.3,57.7,261.8,58.9z"/>
				<path class="st0" d="M251.7,63.1c0.4-0.4,0.8-0.8,1.2-1.2c0.8-1,1.5-2.2,1.9-3.5c0-0.1,0.1-0.1,0-0.2c0-0.1-0.1-0.2-0.1-0.3
					c-0.1,0.1-0.2,0.1-0.2,0.2c-0.1,0.3-0.1,0.5-0.2,0.8c-0.5,1.6-1.3,2.9-2.5,4C251.7,63,251.7,63,251.7,63.1
					C251.7,63.1,251.7,63.1,251.7,63.1z"/>
				<path class="st0" d="M249.5,61.5c0.6-0.2,1.1-0.5,1.5-0.9c0.7-0.6,1.2-1.2,1.7-2c0-0.1,0.1-0.1,0.1-0.2c0-0.1,0-0.1,0-0.2
					c-0.1,0-0.1,0-0.2,0.1c0,0,0,0.1-0.1,0.1C251.8,59.6,250.8,60.6,249.5,61.5C249.6,61.4,249.5,61.5,249.5,61.5z"/>
				<path class="st0" d="M242.9,57.5c0.4-0.5,0.5-1.1,0.4-1.7c-0.1-0.3-0.3-0.7-0.4-1c0-0.1-0.2-0.1-0.3-0.1c0,0.1-0.1,0.2,0,0.3
					c0,0.2,0.1,0.3,0.2,0.5C243.1,56.2,243.2,56.8,242.9,57.5z"/>
			</g>
		</g>
		<g>
			<g>
				<path class="st0" d="M286.6,53.7c-0.7,0.2-1.4,0.5-2,0.8c-0.7,0.4-1.3,0.8-2,1.1c-1.2,0.6-2.5,0.9-3.9,0.9
					c-1.3-0.1-2.5-0.6-3-1.9c-0.4-0.9-0.3-1.9,0.1-2.8c0.5-1.3,1.6-2.1,2.8-2.7c1.5-0.8,3.2-1.2,4.9-1.5c0.8-0.2,1.6-0.3,2.4-0.8
					c0.6-0.4,1.1-0.9,1.3-1.6c0.2-0.8,0-1.5-0.5-2.1c-0.2-0.3-0.4-0.5-0.7-0.8c1.8,0.9,1.9,3.4,0.3,4.6c-0.7,0.5-1.6,0.7-2.5,0.9
					c-1.7,0.3-3.3,0.7-4.9,1.4c-1,0.5-1.9,1.1-2.6,2.1c-0.5,0.8-0.7,1.6-0.5,2.5c0.2,1.3,1.3,2.2,2.7,2.3c0.9,0.1,1.8-0.1,2.7-0.4
					c1.3-0.4,2.5-1.2,3.7-1.9c-1,0.2-2,0.4-3,0.2c0.5-0.4,1-0.8,1.5-1.1c0,0,0-0.1,0-0.1c-0.8,0.3-1.6,0.4-2.5,0.2
					c1.4,0.1,2.5-0.6,3.5-1.5c1-1,2.1-1.9,3.2-2.8c1-0.8,2.1-1.5,3.3-2.1c1.6-0.7,3.2-0.6,4.7,0.3c1.1,0.7,2,1.6,2.8,2.5
					c0.5,0.5,1,1.1,1.7,1.5c0,0-0.1,0-0.1,0c-1.5-0.1-2.9,0.2-4.3,0.7c-2.1,0.7-4.3,1.1-6.5,1.5c-1.6,0.3-3.2,0.9-4.5,1.8
					c-1.5,1.1-2.4,2.5-2.6,4.4c0,0.7-0.2,1.4-0.5,2.1c-0.9,1.8-3.2,2.5-4.9,1.6c-1.6-0.9-2-3.2-0.6-4.5c0.7-0.7,1.5-0.8,2.4-0.5
					c0.8,0.3,1.3,0.8,1.5,1.7c0.1,0.8-0.1,1.4-0.8,1.8c-0.6,0.4-1.2,0.5-1.8,0.1c-0.5-0.3-0.7-0.7-0.6-1.3c0.1-0.5,0.3-0.8,0.8-1
					c0.5-0.2,1,0.1,1,0.6c0,0.2,0,0.3-0.2,0.4c0-0.1,0.1-0.3,0-0.5c-0.1-0.1-0.3-0.3-0.4-0.3c-0.6-0.1-1.1,0.7-0.8,1.3
					c0.4,0.7,1.5,0.8,2.1,0.2c0.8-0.8,0.4-2.3-0.7-2.7c-1.5-0.5-3,0.7-2.9,2.3c0.2,1.6,1.6,2.7,3.2,2.4c1.6-0.3,2.7-1.3,2.9-3.1
					c0.1-0.6,0.1-1.2,0.2-1.7c0.3-1.6,1.3-2.7,2.6-3.6C285.3,54.4,285.9,54.1,286.6,53.7z M287.1,51.2c0-0.4-0.3-0.8-0.8-0.8
					c-0.4,0-0.8,0.3-0.8,0.8c0,0.4,0.4,0.8,0.8,0.8C286.8,51.9,287.1,51.6,287.1,51.2z"/>
				<path class="st0" d="M302.8,51.6c0,0-0.1,0-0.1,0c-0.4-0.1-0.8-0.2-1.2-0.2c-0.8-0.1-1.4-0.5-1.9-1c-0.8-0.9-1.7-1.8-2.6-2.6
					c-1.3-1.2-2.8-1.7-4.6-1.6c0,0-0.1,0-0.1,0c0,0,0,0-0.1,0c0.4-0.2,0.8-0.5,1.3-0.7c1.1-0.5,2.1-1,3.3-1.2
					c1.5-0.3,2.7,0.2,3.6,1.4c0.8,1,1.2,2.2,1.4,3.5c0.1,0.6,0.3,1.3,0.5,1.9C302.3,51.1,302.6,51.3,302.8,51.6
					C302.8,51.6,302.8,51.6,302.8,51.6z"/>
				<path class="st0" d="M302.8,51.6C302.8,51.5,302.8,51.5,302.8,51.6c-0.6-0.9-0.8-1.9-0.9-2.9c-0.3-2-1.3-3.7-3-4.8
					c-0.1,0-0.1-0.1-0.2-0.2c1.6-0.3,3.1-0.3,4.5,0.4c1.2,0.6,2.1,1.5,2.3,2.9c0.1,0.7,0,1.4-0.2,2.1c-0.2,0.8-0.5,1.6-0.6,2.5
					c-0.1,0.5,0,1,0,1.5c-0.6-0.4-1.1-0.9-1.6-1.3C302.9,51.7,302.8,51.6,302.8,51.6C302.8,51.6,302.8,51.6,302.8,51.6z"/>
				<path class="st0" d="M305.8,55.6c-0.3-0.8-0.7-1.6-1-2.4c-0.2-0.6-0.1-1.2,0-1.7c0.2-0.8,0.5-1.6,0.7-2.3
					c0.3-0.9,0.4-1.8,0.1-2.7c-0.3-0.8-0.9-1.5-1.5-2.1c-0.1-0.1-0.2-0.2-0.3-0.2c0.4,0.1,1.5,0.5,2.1,1c1.5,1,2.4,2.4,2.6,4.2
					c0.1,1.1-0.3,2.1-0.9,3c-0.3,0.4-0.6,0.8-0.9,1.2C306.3,54.2,305.9,54.9,305.8,55.6z"/>
				<path class="st0" d="M305.7,57.4c-0.1-1.4,0.3-2.7,1.3-3.8c0.4-0.5,0.8-1,1.1-1.5c0.9-1.3,1-2.7,0.5-4.2c0-0.1-0.1-0.2,0-0.3
					c0.2,0.3,0.4,0.5,0.6,0.8c0.4,0.7,0.8,1.4,1,2.2c0.4,1.6-0.1,2.8-1.2,3.9c-0.4,0.4-0.8,0.7-1.3,1
					C306.8,56,306.1,56.6,305.7,57.4z"/>
				<path class="st0" d="M304.8,59.6c0.3-0.6,0.5-1.3,0.9-2c0.3-0.7,0.9-1.2,1.5-1.6c0.5-0.4,1-0.7,1.5-1.1c0.8-0.6,1.4-1.4,1.7-2.3
					c0.3,1.2,0.2,2.9-0.5,3.8c-0.5,0.7-1.2,1.2-2,1.6c-0.6,0.3-1.3,0.6-1.9,0.9C305.6,59.1,305.2,59.4,304.8,59.6z"/>
				<path class="st0" d="M309.2,58.7c-0.6,1.1-1.6,1.9-2.6,2.6c-1.7,1-3.5,1.5-5.5,1.3c-0.3,0-0.7-0.2-1-0.3c-0.1,0-0.1-0.1-0.2-0.1
					c-0.4-0.2-0.7-0.6-0.6-1c0.1-0.3,0.4-0.6,0.9-0.7c0.5,0,0.9,0.1,1.4,0.2c0.6,0.1,1.1,0.4,1.7,0.5c1.1,0.2,2.1-0.1,3-0.5
					C307.4,60.2,308.4,59.6,309.2,58.7z"/>
				<path class="st0" d="M310.2,56.7c-0.1,0.3-0.2,0.6-0.3,0.8c-1.5,2.2-3.5,3.4-6.2,3.5c-0.1,0-0.3,0-0.4-0.1
					c0.6-0.2,0.9-0.7,1.4-1.1c0.3-0.3,0.7-0.5,1.1-0.6c0.6-0.3,1.2-0.5,1.8-0.8c0.5-0.2,0.9-0.5,1.4-0.8
					C309.3,57.4,309.7,57.1,310.2,56.7z"/>
				<path class="st0" d="M295.8,52.1c-0.1,0.2-0.1,0.3-0.1,0.4c-0.8,1.5-1.8,2.9-2.9,4.2c-0.2,0.2-0.5,0.4-0.7,0.6
					c-0.1,0.1-0.2,0.1-0.3,0.1c-0.1,0-0.3,0-0.3-0.1c-0.1-0.1,0-0.3,0-0.4c0.1-0.1,0.2-0.2,0.3-0.3c1.5-1.1,2.7-2.6,3.7-4.2
					C295.5,52.1,295.5,52.1,295.8,52.1z"/>
				<path class="st0" d="M296.4,51.9c0,0.2,0,0.3,0,0.5c-0.3,0.9-0.6,1.7-1,2.5c-0.4,0.8-0.8,1.6-1.2,2.3c-0.1,0.2-0.3,0.4-0.5,0.6
					c-0.1,0.1-0.4,0.1-0.5,0c-0.2-0.1-0.1-0.3,0-0.5c0.2-0.3,0.5-0.7,0.8-1c1-1.3,1.6-2.7,2.2-4.2c0-0.1,0.1-0.2,0.2-0.3
					C296.3,51.9,296.3,51.9,296.4,51.9z"/>
				<path class="st0" d="M294.9,52.4c0,0.1-0.1,0.2-0.1,0.3c-1.1,1.2-2.2,2.3-3.6,3.1c-0.2,0.1-0.5,0.2-0.8,0.3
					c-0.2,0-0.4,0-0.5-0.2c-0.1-0.2,0.1-0.3,0.2-0.5c0.1-0.1,0.2-0.1,0.3-0.2c1.5-0.6,2.7-1.5,3.9-2.6
					C294.5,52.5,294.7,52.4,294.9,52.4C294.9,52.3,294.9,52.4,294.9,52.4z"/>
				<path class="st0" d="M296.9,51.7c0,0.1,0,0.2,0,0.3c-0.2,1.9-0.5,3.7-1.3,5.4c-0.1,0.2-0.2,0.4-0.4,0.5c-0.1,0.1-0.2,0.1-0.3,0
					c-0.1-0.1-0.1-0.2-0.1-0.3c0-0.1,0.1-0.3,0.1-0.4c0.8-1.7,1.4-3.4,1.7-5.3c0-0.1,0.1-0.2,0.1-0.3
					C296.8,51.7,296.9,51.7,296.9,51.7z"/>
				<path class="st0" d="M294,52.7c-0.1,0.1-0.2,0.2-0.4,0.3c-1,0.7-2.1,1.3-3.3,1.7c-0.2,0.1-0.5,0.1-0.8,0.1
					c-0.1,0-0.3-0.1-0.3-0.2c-0.1-0.2,0.1-0.3,0.2-0.4c0.3-0.1,0.7-0.2,1-0.3c1-0.4,2.1-0.8,3.1-1.3c0.1,0,0.2-0.1,0.3-0.1
					C293.9,52.6,294,52.7,294,52.7z"/>
				<path class="st0" d="M300.3,55.1c-0.2-1.1,0.2-2.1,1.1-2.8c0.2-0.2,0.5-0.3,0.8-0.5c0.1-0.1,0.3,0,0.5,0
					c-0.1,0.1-0.1,0.3-0.2,0.4c-0.3,0.3-0.7,0.5-1,0.8c-0.6,0.4-1,0.9-1.1,1.6C300.3,54.9,300.3,55,300.3,55.1z"/>
				<path class="st0" d="M301.4,55.9c-0.3-0.8-0.1-1.5,0.3-2.2c0.3-0.5,0.7-0.8,1.2-1.1c0.1-0.1,0.2-0.1,0.3-0.1c0.1,0,0.2,0,0.3,0
					c0,0.1,0,0.2,0,0.3c-0.2,0.2-0.4,0.4-0.6,0.6c-0.1,0.1-0.3,0.3-0.4,0.4C301.8,54.3,301.4,55,301.4,55.9z"/>
				<path class="st0" d="M302.6,56.7c-0.3-0.6-0.3-1.3,0-1.9c0.2-0.6,0.6-1.1,1.1-1.6c0.1-0.1,0.2-0.1,0.2-0.2c0.1,0,0.3,0,0.4-0.1
					c0,0.1,0,0.3-0.1,0.4c-0.2,0.3-0.5,0.6-0.7,0.9c-0.5,0.5-0.9,1.1-0.9,1.9C302.6,56.3,302.6,56.5,302.6,56.7z"/>
				<path class="st0" d="M292.6,63.5c-0.8-1.1-1.2-2.4-1.4-3.7c-0.1-0.6-0.1-1.3-0.1-1.9c0-0.1,0-0.1,0-0.2c0.1-0.1,0.2-0.2,0.3-0.3
					c0.1,0.1,0.2,0.2,0.2,0.3c0,0.4,0,0.9,0,1.4c0,1.5,0.4,2.9,1.1,4.2C292.5,63.3,292.5,63.4,292.6,63.5
					C292.6,63.5,292.6,63.5,292.6,63.5z"/>
				<path class="st0" d="M299.1,54.4c-0.1-0.7,0.1-1.3,0.6-1.9c0.3-0.4,0.7-0.7,1.2-0.9c0.1,0,0.1-0.1,0.2,0c0.1,0,0.3,0,0.4,0.1
					c-0.1,0.1-0.1,0.3-0.2,0.3c-0.2,0.2-0.5,0.4-0.8,0.5C299.8,53,299.2,53.5,299.1,54.4z"/>
				<path class="st0" d="M303.7,57.4c-0.5-1-0.4-1.9,0.2-2.8c0.1-0.2,0.4-0.4,0.6-0.6c0.1-0.1,0.2,0,0.3-0.1c0,0.1,0,0.2,0,0.3
					c-0.2,0.3-0.3,0.6-0.5,1C303.8,55.8,303.5,56.5,303.7,57.4z"/>
				<path class="st0" d="M288.4,61.6c-0.1-1.8,0.2-3.6,1-5.3c0-0.1,0.1-0.2,0.2-0.3c0.1-0.1,0.2-0.1,0.3-0.1c0,0.1,0.1,0.2,0.1,0.3
					c0,0,0,0.1-0.1,0.1C289,58,288.5,59.7,288.4,61.6C288.4,61.6,288.4,61.6,288.4,61.6z"/>
				<path class="st0" d="M286,58.9c0.4-1.5,1.3-2.8,2.4-3.8c0.1-0.1,0.3-0.2,0.4-0.3c0.1,0,0.2,0,0.3,0c0,0.1,0,0.2-0.1,0.3
					c-0.3,0.3-0.6,0.5-0.9,0.8C287.2,56.7,286.5,57.7,286,58.9z"/>
				<path class="st0" d="M296.1,63.1c-0.4-0.4-0.8-0.8-1.2-1.2c-0.8-1-1.5-2.2-1.9-3.5c0-0.1-0.1-0.1,0-0.2c0-0.1,0.1-0.2,0.1-0.3
					c0.1,0.1,0.2,0.1,0.2,0.2c0.1,0.3,0.1,0.5,0.2,0.8c0.5,1.6,1.3,2.9,2.5,4C296.1,63,296.1,63,296.1,63.1
					C296.1,63.1,296.1,63.1,296.1,63.1z"/>
				<path class="st0" d="M298.3,61.5c-0.6-0.2-1.1-0.5-1.5-0.9c-0.7-0.6-1.2-1.2-1.7-2c0-0.1-0.1-0.1-0.1-0.2c0-0.1,0-0.1,0-0.2
					c0.1,0,0.1,0,0.2,0.1c0,0,0,0.1,0.1,0.1C296,59.6,297,60.6,298.3,61.5C298.2,61.4,298.3,61.5,298.3,61.5z"/>
				<path class="st0" d="M304.9,57.5c-0.4-0.5-0.5-1.1-0.4-1.7c0.1-0.3,0.3-0.7,0.4-1c0-0.1,0.2-0.1,0.3-0.1c0,0.1,0.1,0.2,0,0.3
					c0,0.2-0.1,0.3-0.2,0.5C304.7,56.2,304.6,56.8,304.9,57.5z"/>
			</g>
		</g>
		<g>
			<g>
				<path class="st0" d="M15.8,58.9c1.5,0.1,2.9,0.4,4.4,0.4c43.3,0,86.5,0,129.8,0c5.2,0,10.6-1.1,14.9,3.2c0-2.9,0-5.4,0-8.3
					c-4.4,4.4-10,3.2-15.3,3.2c-43.1,0-86.3,0-129.4,0c-1.4,0-2.9,0-4.3,0C15.9,58,15.9,58.4,15.8,58.9z"/>
			</g>
			<g>
				<path class="st0" d="M167.4,56.3c-2.1,5.2,2.9,10.3,7.6,10.9c6.2,0.7,11.7-1.2,16.3-5.1c4.5-3.9,8.4-8.6,13-12.4
					c3.5-2.9,7.5-5.5,11.6-7c5.6-2.1,12.1,0.9,14.9,5.8c2.7,4.6,2.2,10.3-1.5,14.1c-2.9,3-6.3,4.6-10.6,3.6c-3.5-0.9-6-2.7-7-6.4
					c-0.9-3.3,0.2-6,3-7.2c2.8-1.3,6-0.3,7.9,2.4c0.8,1.1,1.4,2.3,2.2,3.4c0.1,0.2,0.6,0.2,0.9,0.2c1-3.4-0.9-6.6-4.6-7.9
					c-3.4-1.2-7.2,0-9.3,2.8c-2.1,2.9-1.8,7.1,0.7,10.2c3,3.7,7.8,4.9,12.8,3.4c5-1.6,8.8-6.2,9.2-11.4c0.7-9.9-8.3-17.8-18.3-15.8
					c-6,1.2-10.7,4.7-14.9,8.9c-3.9,4-7.6,8.2-11.7,11.9c-2.1,1.9-4.8,3.2-7.6,4.4c4.3-3.2,7.2-7.1,6.8-12.6c-0.1-1.6-1-3.1-1.6-4.7
					c-0.5,0.1-1,0.2-1.4,0.3c0.1,1.2,0,2.5,0.2,3.7c0.9,5.3-0.7,9.4-4.8,12C174.4,68.1,168.6,65.2,167.4,56.3z"/>
			</g>
			<g>
				<path class="st0" d="M193,47.2c-0.5,3.9-1,7.3-1.4,10.5C195.2,55.3,196.4,49.5,193,47.2z"/>
			</g>
		</g>
		<g>
			<g>
				<path class="st0" d="M531.8,58.9c-1.5,0.1-2.9,0.4-4.4,0.4c-43.3,0-86.5,0-129.8,0c-5.2,0-10.6-1.1-14.9,3.2c0-2.9,0-5.4,0-8.3
					c4.4,4.4,10,3.2,15.3,3.2c43.1,0,86.3,0,129.4,0c1.4,0,2.9,0,4.3,0C531.7,58,531.8,58.4,531.8,58.9z"/>
			</g>
			<g>
				<path class="st0" d="M380.3,56.3c2.1,5.2-2.9,10.3-7.6,10.9c-6.2,0.7-11.7-1.2-16.3-5.1c-4.5-3.9-8.4-8.6-13-12.4
					c-3.5-2.9-7.5-5.5-11.6-7c-5.6-2.1-12.1,0.9-14.9,5.8c-2.7,4.6-2.2,10.3,1.5,14.1c2.9,3,6.3,4.6,10.6,3.6c3.5-0.9,6-2.7,7-6.4
					c0.9-3.3-0.2-6-3-7.2c-2.8-1.3-6-0.3-7.9,2.4c-0.8,1.1-1.4,2.3-2.2,3.4c-0.1,0.2-0.6,0.2-0.9,0.2c-1-3.4,0.9-6.6,4.6-7.9
					c3.4-1.2,7.2,0,9.3,2.8c2.1,2.9,1.8,7.1-0.7,10.2c-3,3.7-7.8,4.9-12.8,3.4c-5-1.6-8.8-6.2-9.2-11.4c-0.7-9.9,8.3-17.8,18.3-15.8
					c6,1.2,10.7,4.7,14.9,8.9c3.9,4,7.6,8.2,11.7,11.9c2.1,1.9,4.8,3.2,7.6,4.4c-4.3-3.2-7.2-7.1-6.8-12.6c0.1-1.6,1-3.1,1.6-4.7
					c0.5,0.1,1,0.2,1.4,0.3c-0.1,1.2,0,2.5-0.2,3.7c-0.9,5.3,0.7,9.4,4.8,12C373.2,68.1,379.1,65.2,380.3,56.3z"/>
			</g>
			<g>
				<path class="st0" d="M354.7,47.2c0.5,3.9,1,7.3,1.4,10.5C352.4,55.3,351.3,49.5,354.7,47.2z"/>
			</g>
		</g>
	</g>
</g>
</svg>
