<?xml version="1.0" encoding="utf-8"?>
<!-- Generator: Adobe Illustrator 21.1.0, SVG Export Plug-In . SVG Version: 6.00 Build 0)  -->
<svg version="1.1" id="Capa_1" xmlns="http://www.w3.org/2000/svg" xmlns:xlink="http://www.w3.org/1999/xlink" x="0px" y="0px"
	 viewBox="0 0 187.1 79.3" style="enable-background:new 0 0 187.1 79.3;" xml:space="preserve">
<style type="text/css">
	.st0{fill:#F6F2EE;}
	.st1{fill:#F2EDE7;}
	.st2{fill:#527983;}
	.st3{fill:#FEFFFF;}
	.st4{fill:#FFFFFF;}
</style>
<path class="st2" d="M172.9,40.3c-1,0.1-2.1,0.2-3.1,0.2c-38.5,0-76.9,0-115.4,0c-1.9,0-3.8-0.4-5.4,1.4c-0.4,0.4-2.3,0-3.1-0.6
	c-1.2-1-1.7-0.9-2.6,0.4c-1.8,2.6-4.6,2.6-6.5,0.3c-1.7-2.1-2.1-2-3.5,0.5c-1.6,2.9-5,4.1-7.9,2.6c-2.9-1.5-4-5-2.5-7.9
	c1.4-2.8,4.8-4.1,7.6-2.6c1.3,0.7,2.3,2.1,3.1,3.4c1,1.7,1.9,1.5,3,0.2c2.6-3,4.4-2.9,7-0.1c0.4,0.4,1.5,0.2,2.3,0.1
	c1.2-0.1,2.4-0.6,3.5-0.4c1.4,0.2,2.7,1.2,4,1.2c38.8,0.1,77.7,0,116.5,0.1c1,0,2.1,0.1,3.1,0.2C172.9,39.6,172.9,40,172.9,40.3z"/>
</svg>
