<?xml version="1.0" encoding="utf-8"?>
<!-- Generator: Adobe Illustrator 21.1.0, SVG Export Plug-In . SVG Version: 6.00 Build 0)  -->
<svg version="1.1" id="Capa_1" xmlns="http://www.w3.org/2000/svg" xmlns:xlink="http://www.w3.org/1999/xlink" x="0px" y="0px"
	 viewBox="0 0 307.3 70.5" style="enable-background:new 0 0 307.3 70.5;" xml:space="preserve">
<style type="text/css">
	.st0{fill:#F6F2EE;}
	.st1{fill:#F2EDE7;}
	.st2{fill:#527983;}
	.st3{fill:#FEFFFF;}
	.st4{fill:#FFFFFF;}
</style>
<g>
	<g>
		<path class="st0" d="M111.6,37.9c-0.6,0-1.1,0.2-1.5,0.7c-0.3,0.4-0.6,1-0.6,1.7l0,0.1h3.9v-0.2c0-0.7-0.1-1.2-0.4-1.6
			C112.7,38.1,112.3,37.9,111.6,37.9z"/>
		<path class="st0" d="M150.5,37.9c-0.6,0-1.1,0.2-1.5,0.7c-0.3,0.4-0.6,1-0.6,1.7l0,0.1h3.9v-0.2c0-0.7-0.1-1.2-0.4-1.6
			C151.6,38.1,151.1,37.9,150.5,37.9z"/>
		<path class="st0" d="M139.7,38.2c-0.3-0.2-0.7-0.3-1.2-0.3c-0.8,0-1.3,0.3-1.7,1c-0.4,0.7-0.5,1.6-0.5,2.7v0.2
			c0,1,0.2,1.8,0.5,2.4c0.3,0.6,0.9,0.9,1.7,0.9c0.5,0,0.9-0.1,1.2-0.3c0.3-0.2,0.6-0.5,0.8-0.8v-5
			C140.4,38.7,140.1,38.4,139.7,38.2z"/>
		<path class="st0" d="M182.9,37.9c-0.8,0-1.4,0.3-1.8,1c-0.4,0.7-0.6,1.5-0.6,2.5v0.2c0,1.1,0.2,1.9,0.6,2.6c0.4,0.6,1,1,1.8,1
			c0.8,0,1.4-0.3,1.8-1c0.4-0.6,0.6-1.5,0.6-2.6v-0.2c0-1-0.2-1.9-0.6-2.5C184.4,38.2,183.8,37.9,182.9,37.9z"/>
		<path class="st0" d="M77.3,40.4h-2.9V45h2.9c0.8,0,1.5-0.2,1.9-0.5c0.4-0.4,0.7-0.9,0.7-1.6c0-0.8-0.2-1.4-0.6-1.8
			C78.8,40.6,78.1,40.4,77.3,40.4z"/>
		<path class="st0" d="M78.4,37.7c0.5-0.3,0.7-0.9,0.7-1.5c0-0.7-0.2-1.3-0.7-1.6c-0.5-0.3-1.1-0.5-2.1-0.5h-2v4.2h2.1
			C77.3,38.2,78,38.1,78.4,37.7z"/>
		<path class="st0" d="M87.6,42.8c-0.3,0.3-0.5,0.7-0.5,1.2c0,0.4,0.1,0.7,0.4,0.9c0.3,0.2,0.6,0.4,1.1,0.4c0.5,0,1-0.1,1.5-0.4
			c0.4-0.3,0.7-0.6,0.9-1v-1.7h-1.8C88.5,42.3,88,42.4,87.6,42.8z"/>
		<path class="st0" d="M283.4,22.3H40.1c-4.1,0-7.4,3.3-7.4,7.4v19.5c0,4.1,3.3,7.4,7.4,7.4h243.3c4.1,0,7.4-3.3,7.4-7.4V29.7
			C290.8,25.6,287.5,22.3,283.4,22.3z M81.5,46.2c-1,0.8-2.4,1.2-4.2,1.2h-6.1V31.6h5.2c1.9,0,3.3,0.4,4.3,1.1
			c1,0.7,1.6,1.8,1.6,3.2c0,0.7-0.2,1.4-0.6,1.9c-0.4,0.6-0.9,1-1.6,1.3c1,0.2,1.7,0.6,2.2,1.3c0.5,0.7,0.7,1.5,0.7,2.4
			C83,44.3,82.5,45.5,81.5,46.2z M91.4,47.4c-0.1-0.3-0.2-0.5-0.3-0.8C91.1,46.3,91,46,91,45.7c-0.3,0.6-0.8,1-1.3,1.4
			c-0.5,0.4-1.2,0.6-1.9,0.6c-1.2,0-2.2-0.3-2.8-0.9c-0.7-0.6-1-1.5-1-2.6c0-1.1,0.4-2,1.3-2.7c0.9-0.6,2.2-0.9,3.9-0.9h1.8v-0.9
			c0-0.6-0.1-1-0.4-1.3c-0.3-0.3-0.7-0.5-1.3-0.5c-0.5,0-0.9,0.1-1.2,0.4c-0.3,0.2-0.4,0.6-0.4,1h-3l0-0.1c-0.1-1,0.4-1.8,1.3-2.6
			c0.9-0.7,2.1-1.1,3.6-1.1c1.4,0,2.5,0.4,3.4,1.1c0.9,0.7,1.3,1.7,1.3,3v4.8c0,0.5,0,1.1,0.1,1.5c0.1,0.5,0.2,1,0.4,1.4H91.4z
			 M103.9,46.6c-0.9,0.7-2.1,1-3.6,1c-1.6,0-2.8-0.4-3.7-1.2c-0.9-0.8-1.3-1.7-1.3-2.7l0-0.1h2.9c0,0.6,0.2,1.1,0.6,1.4
			c0.4,0.3,0.9,0.4,1.5,0.4c0.6,0,1-0.1,1.3-0.4c0.3-0.2,0.5-0.6,0.5-1c0-0.3-0.2-0.6-0.5-0.9c-0.3-0.2-1-0.5-1.9-0.7
			c-1.4-0.3-2.4-0.7-3.1-1.2c-0.7-0.6-1.1-1.3-1.1-2.3c0-1,0.4-1.9,1.3-2.6c0.9-0.7,2-1.1,3.4-1.1c1.5,0,2.7,0.4,3.6,1.1
			c0.9,0.7,1.3,1.6,1.3,2.6l0,0.1h-3.1c0-0.5-0.2-0.9-0.5-1.1c-0.3-0.3-0.7-0.4-1.3-0.4c-0.5,0-0.9,0.1-1.2,0.4
			c-0.3,0.3-0.4,0.6-0.4,0.9c0,0.4,0.2,0.7,0.5,0.9c0.3,0.2,0.9,0.4,1.9,0.6c1.4,0.3,2.5,0.7,3.2,1.3c0.7,0.6,1.1,1.3,1.1,2.3
			C105.3,45.1,104.8,46,103.9,46.6z M116.5,42.5h-7l0,0.1c0.1,0.8,0.3,1.5,0.7,1.9c0.4,0.5,1.1,0.7,1.9,0.7c0.7,0,1.3-0.1,1.8-0.2
			c0.5-0.1,1-0.4,1.5-0.7l0.9,1.9c-0.5,0.4-1.1,0.7-1.9,1c-0.8,0.3-1.7,0.4-2.6,0.4c-1.7,0-3.1-0.5-4.1-1.6c-1-1.1-1.5-2.5-1.5-4.1
			v-0.4c0-1.8,0.5-3.2,1.4-4.3s2.3-1.7,3.9-1.7c1.6,0,2.8,0.5,3.6,1.4c0.8,1,1.3,2.3,1.3,3.9V42.5z M125.9,46.6
			c-0.9,0.7-2.1,1-3.6,1c-1.6,0-2.8-0.4-3.7-1.2c-0.9-0.8-1.3-1.7-1.3-2.7l0-0.1h2.9c0,0.6,0.2,1.1,0.6,1.4c0.4,0.3,0.9,0.4,1.5,0.4
			c0.6,0,1-0.1,1.3-0.4c0.3-0.2,0.5-0.6,0.5-1c0-0.3-0.2-0.6-0.5-0.9c-0.3-0.2-1-0.5-1.9-0.7c-1.4-0.3-2.4-0.7-3.1-1.2
			c-0.7-0.6-1.1-1.3-1.1-2.3c0-1,0.4-1.9,1.3-2.6c0.9-0.7,2-1.1,3.4-1.1c1.5,0,2.7,0.4,3.6,1.1c0.9,0.7,1.3,1.6,1.3,2.6l0,0.1H124
			c0-0.5-0.2-0.9-0.5-1.1c-0.3-0.3-0.7-0.4-1.3-0.4c-0.5,0-0.9,0.1-1.2,0.4c-0.3,0.3-0.4,0.6-0.4,0.9c0,0.4,0.2,0.7,0.5,0.9
			c0.3,0.2,0.9,0.4,1.9,0.6c1.4,0.3,2.5,0.7,3.2,1.3c0.7,0.6,1.1,1.3,1.1,2.3C127.2,45.1,126.8,46,125.9,46.6z M143.7,47.4H141
			l-0.3-1.4c-0.4,0.5-0.8,1-1.3,1.2c-0.5,0.3-1.1,0.4-1.7,0.4c-1.4,0-2.6-0.5-3.4-1.6c-0.8-1.1-1.2-2.4-1.2-4.2v-0.2
			c0-1.8,0.4-3.3,1.2-4.5c0.8-1.1,1.9-1.7,3.4-1.7c0.6,0,1.1,0.1,1.6,0.4c0.5,0.3,0.9,0.6,1.2,1.1v-6.4h3.2V47.4z M155.4,42.5h-7
			l0,0.1c0.1,0.8,0.3,1.5,0.7,1.9c0.4,0.5,1.1,0.7,1.9,0.7c0.7,0,1.3-0.1,1.8-0.2c0.5-0.1,1-0.4,1.5-0.7l0.9,1.9
			c-0.5,0.4-1.1,0.7-1.9,1c-0.8,0.3-1.7,0.4-2.6,0.4c-1.7,0-3.1-0.5-4.1-1.6c-1-1.1-1.5-2.5-1.5-4.1v-0.4c0-1.8,0.5-3.2,1.4-4.3
			c1-1.1,2.3-1.7,3.9-1.7c1.6,0,2.8,0.5,3.6,1.4c0.8,1,1.3,2.3,1.3,3.9V42.5z M160,47.4h-3.2V30.5h3.2V47.4z M170.2,44.2
			c0.3,0.6,0.9,1,1.8,1c0.5,0,1-0.2,1.3-0.5s0.5-0.8,0.5-1.3h2.9l0,0.1c0,1.2-0.4,2.2-1.3,3c-0.9,0.8-2,1.2-3.4,1.2
			c-1.7,0-3.1-0.6-4-1.7c-0.9-1.1-1.4-2.5-1.4-4.3v-0.3c0-1.7,0.5-3.1,1.4-4.3c0.9-1.1,2.3-1.7,4-1.7c1.4,0,2.6,0.4,3.5,1.2
			c0.9,0.8,1.3,1.9,1.3,3.2l0,0.1h-2.9c0-0.6-0.2-1.1-0.5-1.5c-0.3-0.4-0.8-0.6-1.3-0.6c-0.8,0-1.4,0.3-1.7,1
			c-0.3,0.7-0.5,1.5-0.5,2.5v0.3C169.6,42.8,169.8,43.6,170.2,44.2z M188.5,41.7c0,1.8-0.5,3.2-1.5,4.3c-1,1.1-2.3,1.7-4.1,1.7
			c-1.7,0-3.1-0.6-4.1-1.7c-1-1.1-1.5-2.5-1.5-4.3v-0.2c0-1.7,0.5-3.2,1.5-4.3c1-1.1,2.3-1.7,4.1-1.7c1.7,0,3.1,0.6,4.1,1.7
			c1,1.1,1.5,2.5,1.5,4.3V41.7z M200,47.4h-3.2v-7.2c0-0.8-0.1-1.4-0.4-1.8c-0.3-0.4-0.7-0.5-1.3-0.5c-0.5,0-0.9,0.1-1.2,0.3
			c-0.4,0.2-0.7,0.4-0.9,0.7v8.5h-3.2V35.7h2.9l0.1,1.7c0.4-0.6,0.9-1.1,1.4-1.4c0.6-0.3,1.2-0.5,1.9-0.5c1.2,0,2.1,0.4,2.8,1.1
			c0.7,0.8,1,2,1,3.6V47.4z M205,44.2c0.3,0.6,0.9,1,1.8,1c0.5,0,1-0.2,1.3-0.5s0.5-0.8,0.5-1.3h2.9l0,0.1c0,1.2-0.4,2.2-1.3,3
			c-0.9,0.8-2,1.2-3.4,1.2c-1.7,0-3.1-0.6-4-1.7c-0.9-1.1-1.4-2.5-1.4-4.3v-0.3c0-1.7,0.5-3.1,1.4-4.3c0.9-1.1,2.3-1.7,4-1.7
			c1.4,0,2.6,0.4,3.5,1.2c0.9,0.8,1.3,1.9,1.3,3.2l0,0.1h-2.9c0-0.6-0.2-1.1-0.5-1.5c-0.3-0.4-0.8-0.6-1.3-0.6c-0.8,0-1.4,0.3-1.7,1
			c-0.3,0.7-0.5,1.5-0.5,2.5v0.3C204.5,42.8,204.6,43.6,205,44.2z M222.9,47.4h-2.6l-0.3-1.7c-0.4,0.6-0.8,1.1-1.4,1.5
			c-0.6,0.3-1.2,0.5-1.9,0.5c-1.2,0-2.2-0.4-2.9-1.3c-0.7-0.8-1-2.1-1-3.9v-6.8h3.2v6.8c0,1,0.1,1.7,0.4,2.1
			c0.3,0.4,0.7,0.6,1.3,0.6c0.5,0,0.9-0.1,1.3-0.2c0.4-0.2,0.7-0.4,0.9-0.7v-8.5h3.2V47.4z M230.8,38.4l-1.2,0
			c-0.5,0-0.9,0.1-1.2,0.3c-0.3,0.2-0.5,0.5-0.7,0.8v7.9h-3.2V35.7h2.9l0.1,1.7c0.3-0.6,0.6-1.1,1.1-1.4s0.9-0.5,1.5-0.5
			c0.2,0,0.3,0,0.4,0c0.1,0,0.3,0.1,0.4,0.1L230.8,38.4z M240,46.6c-0.9,0.7-2.1,1-3.6,1c-1.6,0-2.8-0.4-3.7-1.2
			c-0.9-0.8-1.3-1.7-1.3-2.7l0-0.1h2.9c0,0.6,0.2,1.1,0.6,1.4c0.4,0.3,0.9,0.4,1.5,0.4c0.6,0,1-0.1,1.3-0.4c0.3-0.2,0.5-0.6,0.5-1
			c0-0.3-0.2-0.6-0.5-0.9c-0.3-0.2-1-0.5-1.9-0.7c-1.4-0.3-2.4-0.7-3.1-1.2c-0.7-0.6-1.1-1.3-1.1-2.3c0-1,0.4-1.9,1.3-2.6
			c0.9-0.7,2-1.1,3.4-1.1c1.5,0,2.7,0.4,3.6,1.1c0.9,0.7,1.3,1.6,1.3,2.6l0,0.1h-3.1c0-0.5-0.2-0.9-0.5-1.1
			c-0.3-0.3-0.7-0.4-1.3-0.4c-0.5,0-0.9,0.1-1.2,0.4c-0.3,0.3-0.4,0.6-0.4,0.9c0,0.4,0.2,0.7,0.5,0.9c0.3,0.2,0.9,0.4,1.9,0.6
			c1.4,0.3,2.5,0.7,3.2,1.3c0.7,0.6,1.1,1.3,1.1,2.3C241.3,45.1,240.9,46,240,46.6z M253.4,41.7c0,1.8-0.5,3.2-1.5,4.3
			c-1,1.1-2.3,1.7-4.1,1.7c-1.7,0-3.1-0.6-4.1-1.7c-1-1.1-1.5-2.5-1.5-4.3v-0.2c0-1.7,0.5-3.2,1.5-4.3c1-1.1,2.3-1.7,4.1-1.7
			c1.7,0,3.1,0.6,4.1,1.7c1,1.1,1.5,2.5,1.5,4.3V41.7z"/>
		<path class="st0" d="M247.8,37.9c-0.8,0-1.4,0.3-1.8,1c-0.4,0.7-0.6,1.5-0.6,2.5v0.2c0,1.1,0.2,1.9,0.6,2.6c0.4,0.6,1,1,1.8,1
			c0.8,0,1.4-0.3,1.8-1c0.4-0.6,0.6-1.5,0.6-2.6v-0.2c0-1-0.2-1.9-0.6-2.5C249.3,38.2,248.7,37.9,247.8,37.9z"/>
	</g>
</g>
</svg>
