<?xml version="1.0" encoding="utf-8"?>
<!-- Generator: Adobe Illustrator 21.1.0, SVG Export Plug-In . SVG Version: 6.00 Build 0)  -->
<svg version="1.1" id="Capa_1" xmlns="http://www.w3.org/2000/svg" xmlns:xlink="http://www.w3.org/1999/xlink" x="0px" y="0px"
	 viewBox="0 0 500 200" style="enable-background:new 0 0 500 200;" xml:space="preserve">
<style type="text/css">
	.st0{fill:#F6F2EE;}
	.st1{fill:#F2EDE7;}
	.st2{fill:#527983;}
	.st3{fill:#FEFFFF;}
	.st4{fill:#FFFFFF;}
</style>
<path class="st0" d="M475.9,97.7c-1.4,0.1-2.8,0.3-4.2,0.3c-48.7,0-97.3,0-146,0.1c-1.7,0-3.3,1.2-5.1,1.4c-1.4,0.2-3.3,0.3-4.4-0.4
	c-1.4-0.9-2-1.4-3.3,0.3c-2.6,3.5-5.8,3.5-8.4,0.3c-1.9-2.4-2.6-2.2-4.2,0.7c-1.6,3.1-5,4.7-8.2,4c-3.3-0.8-5.7-3.7-5.7-7.1
	c-0.1-3.4,2.2-6.4,5.6-7.2c3.3-0.9,6.7,0.8,8.5,4.1c1.5,2.8,2.3,2.9,4.3,0.4c2.3-2.9,5.8-3.1,8-0.1c1.2,1.7,1.9,2.3,3.7,0.6
	c0.8-0.7,2.7-0.6,4-0.4c1.8,0.3,3.6,1.5,5.4,1.5c48.7,0.1,97.3,0.1,146,0.1c1.3,0,2.7,0.1,4,0.2C475.8,96.8,475.8,97.2,475.9,97.7z"
	/>
<path class="st0" d="M23.9,96.5c1.4-0.1,2.8-0.3,4.2-0.3c48.7,0,97.3,0,146-0.1c1.7,0,3.3-1.2,5.1-1.4c1.4-0.2,3.3-0.3,4.4,0.4
	c1.4,0.9,2,1.4,3.3-0.3c2.6-3.5,5.8-3.5,8.4-0.3c1.9,2.4,2.6,2.2,4.2-0.7c1.6-3.1,5-4.7,8.2-4c3.3,0.8,5.7,3.7,5.7,7.1
	c0.1,3.4-2.2,6.4-5.6,7.2c-3.3,0.9-6.7-0.8-8.5-4.1c-1.5-2.8-2.3-2.9-4.3-0.4c-2.3,2.9-5.8,3.1-8,0.1c-1.2-1.7-1.9-2.3-3.7-0.6
	c-0.8,0.7-2.7,0.6-4,0.4c-1.8-0.3-3.6-1.5-5.4-1.5C125.3,97.9,76.6,98,28,98c-1.3,0-2.7-0.1-4-0.2C23.9,97.3,23.9,96.9,23.9,96.5z"
	/>
<rect x="244.2" y="92.2" transform="matrix(0.7071 -0.7071 0.7071 0.7071 4.332 204.5741)" class="st1" width="9.8" height="9.8"/>
</svg>
