<?xml version="1.0" encoding="utf-8"?>
<!-- Generator: Adobe Illustrator 21.1.0, SVG Export Plug-In . SVG Version: 6.00 Build 0)  -->
<svg version="1.1" id="Capa_1" xmlns="http://www.w3.org/2000/svg" xmlns:xlink="http://www.w3.org/1999/xlink" x="0px" y="0px"
	 viewBox="0 0 307.3 70.5" style="enable-background:new 0 0 307.3 70.5;" xml:space="preserve">
<style type="text/css">
	.st0{fill:#F6F2EE;}
	.st1{fill:#F2EDE7;}
	.st2{fill:#527983;}
	.st3{fill:#FEFFFF;}
	.st4{fill:#FFFFFF;}
</style>
<g>
	<g>
		<path class="st2" d="M261.9,39.4c-0.7,0-1.4,0.1-2.1,0.1c-26.9,0-53.9,0-80.8,0c-1.1,0-2,0-2.9,1c-0.8,0.9-1.9,0.7-2.7-0.3
			c-0.8-1-1.1-0.7-1.7,0.2c-1.4,2.2-3.8,3.1-6.3,2.2c-2.4-1-4.8-2.1-7.2-3.2c0-0.2-0.1-0.4-0.1-0.7c2.9-1.2,5.8-2.6,8.8-3.4
			c2-0.5,3.8,0.7,4.8,2.6c0.6,1,0.9,1,1.6,0.2c0.8-1.1,2-1.3,2.8-0.3c0.8,1,1.6,0.9,2.6,0.9c24.6,0,49.2,0,73.8,0c2.6,0,5.2,0,7.8,0
			c0.5,0,1.1,0.1,1.6,0.1C261.9,39,261.9,39.2,261.9,39.4z"/>
		<path class="st2" d="M52.9,38.6c0.7,0,1.4,0,2.1,0c27,0,54,0,81,0c1,0,1.8,0.1,2.6-0.9c0.7-0.9,1.9-0.8,2.7,0.2
			c0.7,0.9,1.1,1,1.7-0.1c1.4-2.3,3.9-3.2,6.4-2.3c2.4,1,4.8,2.2,7.2,3.3c0,0.2,0,0.4,0,0.6c-2.7,1.1-5.3,2.4-8,3.4
			c-1.9,0.7-4.3-0.4-5.4-2.4c-0.6-1.1-1-1.2-1.8-0.2c-0.8,1-1.8,0.9-2.9,0.1c-0.6-0.5-1.4-0.8-2.2-0.8c-15.5,0-31,0-46.5,0
			c-11.6,0-23.2,0-34.8,0c-0.6,0-1.3-0.1-1.9-0.1C52.9,39.1,52.9,38.9,52.9,38.6z"/>
		<path class="st2" d="M160.5,34.6c0,1.6-1.4,3.1-3,3.1c-1.7,0-3.1-1.2-3.1-2.9c-0.1-1.7,1.2-3.1,2.9-3.2
			C159.1,31.5,160.5,32.8,160.5,34.6z"/>
		<path class="st2" d="M157.4,40.3c1.7,0,3.1,1.3,3.1,3c0,1.7-1.5,3.2-3.2,3.1c-1.7-0.1-3-1.5-3-3.1
			C154.4,41.6,155.7,40.3,157.4,40.3z"/>
	</g>
</g>
</svg>
