<?xml version="1.0" encoding="utf-8"?>
<!-- Generator: Adobe Illustrator 21.1.0, SVG Export Plug-In . SVG Version: 6.00 Build 0)  -->
<svg version="1.1" id="Capa_1" xmlns="http://www.w3.org/2000/svg" xmlns:xlink="http://www.w3.org/1999/xlink" x="0px" y="0px"
	 viewBox="0 0 676.6 145.8" style="enable-background:new 0 0 676.6 145.8;" xml:space="preserve">
<style type="text/css">
	.st0{fill:#F6F2EE;}
	.st1{fill:#F2EDE7;}
	.st2{fill:#527983;}
	.st3{fill:#FEFFFF;}
	.st4{fill:#FFFFFF;}
</style>
<path class="st3" d="M466.2,77.1c-5.9-0.1-10.2,4.6-10.3,11.1c-0.1,6.8,4.2,11.8,10.2,11.8c5.8,0,10-4.8,10-11.4
	C476.1,82,472.1,77.2,466.2,77.1z"/>
<path class="st4" d="M170,77.1c-5.8,0-10.1,4.8-10.1,11.4c0,6.8,4.4,11.7,10.4,11.6c5.6-0.1,10.1-5.3,10-11.6
	C180.2,82.1,175.7,77.1,170,77.1z"/>
<path class="st2" d="M623.9,108.2c-2.3-2.7-4.7-5.3-7-7.9c-7.3-8.1-16.2-12.9-26.1-14.8c-12.6-2.4-25.3-1.5-38-0.9
	c-0.3,0-0.6,0.1-0.8,0.1c0.1,0.7,0.3,1.4,0.4,2.1c-3.4-0.1-7.3,0.9-10.2-0.6c-3.7-1.8-1.8-7-2.5-10.7c-1.5-8-4.7-15-8-22
	c0.8,0.1,1.4,0.4,2.1,0.7c-0.2-0.6-0.3-1.2-0.4-1.9c-8-11.6-17.4-20.7-30.9-22.1c-16.7-1.8-33.1-0.6-49.3,5
	c-18.2,6.3-35.9,14.1-54.1,20.3c-12.1,4.1-24.3,7.3-37,6.2c-9.1-0.8-17.7-3.1-24.6-10.4c-2.3-2.4-4.5-2.4-6.6,0.1
	c-3.1,3.7-7.1,5.8-11.3,7.4c-13.5,4.9-26.9,3.6-40.4-0.2c-19.2-5.4-37.7-13.6-56.4-20.8c-15.7-6-31.6-8.9-48.1-8.2
	c-6.5,0.3-13.3,0.2-19.3,3.7c-15.9,9.1-25.5,23.8-29,43.5c-1.3,7.3-1.3,7.3-7.8,7.5c-13.6,0.4-27.3-1-40.9,1.1
	C60.3,87.9,48,98.5,38.8,114.6c-3.7,6.4-3.8,13.7-4.7,20.7H58c5.9-16.9,18.9-29.3,35.8-32.9c2.8-0.6,5.6-0.7,8.4-0.8
	c11.8-0.1,23.6-0.1,35.3,0c2.3,0,4.1,0,4.5-3.7c4.5-36.1,28.4-55.1,59.9-48.2c20.6,4.5,40,13.3,59.9,20.6
	c14.8,5.4,29.5,11.4,45.5,9.9c9.4-0.9,18.5-2.6,25.3-10.9c0.9-1.1,1.6-1.4,2.6-0.1c7.1,8.7,16.5,10.2,26.2,11.1
	c14.8,1.2,28.6-4.1,42.3-9.1c19.1-6.9,37.8-15.4,57.5-20.5c12.6-3.2,25.2-4.3,37.4,2.3c16.1,8.8,25.5,23.3,27.2,43.7
	c0.4,4.1,1.7,5,5,4.9c11.2-0.2,22.3-0.1,33.5,0c19.9,0.1,37,14,44,33.7h25.7c-0.9-6.6-2.8-13-6.4-18.7
	C626,114,624.6,111.3,623.9,108.2z"/>
<path class="st2" d="M542,77.6c0.6,4.5,1.9,6.8,6.1,6.7c1.3-0.1,2.5,0.4,3.8,0.4c-1.9-9.6-6.6-17.6-12.5-24.8
	c-1.8-2.1-3.4-4.5-5.8-5.7c0.3,1.1,0.7,2.1,1.4,3"/>
<path class="st2" d="M539.6,75.5c0.7,3.6-1.2,8.9,2.5,10.7c2.9,1.4,6.8,0.5,10.2,0.6c-0.1-0.7-0.2-1.4-0.4-2.1
	c-1.3,0-2.5-0.5-3.8-0.4c-4.1,0.2-5.5-2.2-6.1-6.7c-0.9-7.3-2.3-14.6-7-20.4c-0.7-0.9-1.1-1.9-1.4-3c-0.6-0.3-1.3-0.6-2.1-0.7
	C534.9,60.5,538.1,67.6,539.6,75.5z"/>
<path class="st2" d="M480.5,76.2c-20-0.2-38.8,5.9-56.8,15.2c-16.9,8.7-34.6,12.4-53.2,11.3c-8.8-0.6-17.3-2.6-26.1-6.5
	c0.6,1.2,0.7,1.7,1,2c0.8,0.8,1.7,1.5,2.6,2.2c11.6,8.5,24.5,10.4,37.9,9.5c10.3-0.7,20.1-3.7,30-6.5c16.6-4.9,33.1-5.6,49.6,1.1
	c4.7,1.9,9.7,3,14.6,4c5.8,1.2,11.8-2.3,14.6-8.3c2.9-6.2,2-13.8-2.3-18.8C489.2,77.6,485.1,76.2,480.5,76.2z M482.3,104
	c-6,0-10.3-5-10.2-11.8c0.1-6.5,4.5-11.2,10.3-11.1c5.8,0.1,9.9,4.8,9.9,11.5C492.3,99.3,488.1,104,482.3,104z"/>
<path class="st2" d="M241.9,90c-9.6-5-19.6-8.7-30-11.1c-8.5-1.9-17.1-3.3-25.7-2.6c-9.5,0.7-15.3,8.9-13.9,19.3
	c1.2,9.1,9.1,14.7,17.8,12.5c5.5-1.4,11-3,16.4-4.8c7.7-2.6,15.5-4.3,23.6-3.9c11.4,0.6,22.3,4,33.3,7c11.7,3.2,23.5,4.9,35.5,2.8
	c9.1-1.5,17.6-4.9,24.5-12C295.3,107.5,268.3,103.7,241.9,90z M186.5,104c-6.1,0.1-10.5-4.8-10.4-11.6c0-6.5,4.3-11.3,10.1-11.4
	c5.7,0,10.2,4.9,10.3,11.3C196.6,98.7,192.1,103.9,186.5,104z"/>
<path class="st3" d="M482.4,81.1c-5.9-0.1-10.2,4.6-10.3,11.1c-0.1,6.8,4.2,11.8,10.2,11.8c5.8,0,10-4.8,10-11.4
	C492.3,85.9,488.3,81.2,482.4,81.1z"/>
<path class="st4" d="M186.2,81.1c-5.8,0-10.1,4.8-10.1,11.4c0,6.8,4.4,11.7,10.4,11.6c5.6-0.1,10.1-5.3,10-11.6
	C196.4,86,191.9,81.1,186.2,81.1z"/>
</svg>
