<?xml version="1.0" encoding="utf-8"?>
<!-- Generator: Adobe Illustrator 21.1.0, SVG Export Plug-In . SVG Version: 6.00 Build 0)  -->
<svg version="1.1" id="Capa_1" xmlns="http://www.w3.org/2000/svg" xmlns:xlink="http://www.w3.org/1999/xlink" x="0px" y="0px"
	 viewBox="0 0 520 200" style="enable-background:new 0 0 520 200;" xml:space="preserve">
<style type="text/css">
	.st0{fill:#F6F2EE;}
	.st1{font-family:'Superclarendon-Regular';}
	.st2{font-size:29.6699px;}
	.st3{fill:#EDE6DD;}
	.st4{font-family:'Gotham-Bold';}
	.st5{font-size:19.3373px;}
</style>
<g>
	<g>
		<g>
			<g>
				<path class="st0" d="M248.7,158.7c1,0.7,1.8,1.7,2.1,2.9c0.1,0.5,0.1,0.9,0.2,1.4c0.2,1.4,1.1,2.2,2.4,2.5
					c1.3,0.2,2.5-0.6,2.6-1.9c0.1-1.3-1.1-2.3-2.3-1.9c-0.9,0.3-1.2,1.5-0.6,2.2c0.5,0.5,1.4,0.5,1.7-0.1c0.2-0.5-0.1-1.1-0.6-1
					c-0.1,0-0.3,0.1-0.3,0.2c-0.1,0.1,0,0.3,0,0.4c-0.1-0.1-0.2-0.1-0.2-0.3c0-0.4,0.4-0.6,0.8-0.4c0.4,0.1,0.6,0.4,0.6,0.8
					c0.1,0.4-0.1,0.8-0.5,1c-0.5,0.3-1,0.3-1.5-0.1c-0.5-0.3-0.7-0.9-0.6-1.5c0.1-0.7,0.5-1.2,1.2-1.4c0.7-0.2,1.4-0.1,2,0.4
					c1.1,1,0.8,2.9-0.5,3.6c-1.4,0.8-3.3,0.2-4-1.3c-0.3-0.5-0.4-1.1-0.4-1.7c-0.1-1.5-0.8-2.7-2.1-3.6c-1.1-0.8-2.3-1.2-3.7-1.5
					c-1.8-0.3-3.5-0.7-5.2-1.2c-1.1-0.4-2.3-0.6-3.5-0.5c0,0,0,0-0.1,0c0.6-0.3,1-0.7,1.4-1.2c0.7-0.7,1.4-1.5,2.3-2
					c1.2-0.7,2.5-0.9,3.8-0.3c1,0.4,1.9,1,2.7,1.7c0.9,0.7,1.7,1.5,2.6,2.3c0.8,0.7,1.7,1.3,2.8,1.2c-0.7,0.2-1.4,0-2-0.2
					c0,0,0,0,0,0.1c0.4,0.3,0.8,0.6,1.3,0.9c-0.8,0.1-1.6,0-2.4-0.2c1,0.5,1.9,1.2,3,1.5c0.7,0.2,1.5,0.4,2.2,0.3
					c1.2-0.1,2-0.8,2.2-1.8c0.1-0.7-0.1-1.4-0.4-2c-0.5-0.8-1.2-1.3-2.1-1.7c-1.2-0.6-2.6-0.9-3.9-1.2c-0.7-0.1-1.4-0.3-2-0.7
					c-1.3-1-1.2-2.9,0.2-3.7c-0.2,0.2-0.4,0.4-0.5,0.7c-0.4,0.5-0.6,1.1-0.4,1.7c0.2,0.6,0.6,1,1.1,1.3c0.6,0.3,1.3,0.5,1.9,0.6
					c1.4,0.3,2.7,0.6,4,1.2c1,0.5,1.8,1.1,2.2,2.2c0.3,0.7,0.4,1.5,0.1,2.2c-0.4,1.1-1.3,1.5-2.4,1.5c-1.1,0.1-2.2-0.2-3.1-0.7
					c-0.6-0.3-1.1-0.6-1.6-0.9c-0.5-0.3-1.1-0.5-1.6-0.7C247.7,158.1,248.2,158.4,248.7,158.7z M247.3,156.4c0.3,0,0.6-0.3,0.6-0.6
					c0-0.3-0.3-0.6-0.6-0.6c-0.3,0-0.6,0.3-0.6,0.6C246.7,156.1,247,156.4,247.3,156.4z"/>
				<path class="st0" d="M234.1,156.1c0,0,0.1,0,0.1,0c0.3-0.1,0.7-0.1,1-0.2c0.6-0.1,1.1-0.4,1.6-0.8c0.7-0.7,1.4-1.5,2.1-2.1
					c1-1,2.3-1.4,3.7-1.3c0,0,0.1,0,0.1,0c0,0,0,0,0,0c-0.4-0.2-0.7-0.4-1-0.5c-0.9-0.4-1.7-0.8-2.7-1c-1.2-0.3-2.2,0.2-2.9,1.1
					c-0.6,0.8-1,1.8-1.1,2.8c-0.1,0.5-0.3,1-0.4,1.5C234.5,155.7,234.3,155.9,234.1,156.1L234.1,156.1z"/>
				<path class="st0" d="M234.1,156.1C234.1,156.1,234.1,156,234.1,156.1c0.5-0.7,0.6-1.5,0.7-2.3c0.2-1.6,1-3,2.4-3.9
					c0,0,0.1-0.1,0.2-0.1c-1.3-0.2-2.5-0.2-3.6,0.4c-1,0.5-1.7,1.2-1.9,2.3c-0.1,0.6,0,1.1,0.2,1.7c0.2,0.7,0.4,1.3,0.5,2
					c0.1,0.4,0,0.8,0,1.2c0.4-0.4,0.9-0.7,1.3-1C234,156.2,234.1,156.1,234.1,156.1C234.1,156.1,234.1,156.1,234.1,156.1z"/>
				<path class="st0" d="M231.7,159.3c0.3-0.6,0.5-1.3,0.8-1.9c0.2-0.4,0.1-0.9,0-1.4c-0.2-0.6-0.4-1.3-0.6-1.9
					c-0.2-0.7-0.4-1.4-0.1-2.2c0.2-0.7,0.7-1.2,1.2-1.7c0.1-0.1,0.2-0.1,0.3-0.2c-0.4,0.1-1.2,0.4-1.7,0.8c-1.2,0.8-2,1.9-2.1,3.4
					c-0.1,0.9,0.2,1.7,0.7,2.4c0.2,0.3,0.5,0.6,0.7,1C231.3,158.2,231.6,158.8,231.7,159.3z"/>
				<path class="st0" d="M231.7,160.8c0.1-1.2-0.3-2.2-1-3c-0.3-0.4-0.6-0.8-0.9-1.2c-0.8-1.1-0.8-2.2-0.4-3.4c0-0.1,0.1-0.2,0-0.3
					c-0.2,0.2-0.3,0.4-0.4,0.7c-0.4,0.6-0.6,1.1-0.8,1.8c-0.3,1.3,0.1,2.3,1,3.1c0.3,0.3,0.7,0.6,1,0.8
					C230.8,159.7,231.4,160.1,231.7,160.8z"/>
				<path class="st0" d="M232.5,162.6c-0.2-0.5-0.4-1.1-0.7-1.6c-0.3-0.6-0.7-0.9-1.2-1.3c-0.4-0.3-0.8-0.6-1.2-0.9
					c-0.6-0.5-1.1-1.1-1.3-1.9c-0.2,1-0.1,2.3,0.4,3.1c0.4,0.6,1,1,1.6,1.3c0.5,0.3,1,0.5,1.5,0.7
					C231.8,162.2,232.2,162.4,232.5,162.6z"/>
				<path class="st0" d="M228.9,161.9c0.5,0.9,1.3,1.6,2.1,2.1c1.4,0.8,2.8,1.2,4.4,1c0.3,0,0.5-0.1,0.8-0.2c0,0,0.1,0,0.1-0.1
					c0.3-0.2,0.5-0.5,0.5-0.8c0-0.3-0.3-0.5-0.7-0.5c-0.4,0-0.7,0.1-1.1,0.1c-0.5,0.1-0.9,0.3-1.4,0.4c-0.9,0.1-1.7-0.1-2.5-0.4
					C230.3,163.1,229.6,162.5,228.9,161.9z"/>
				<path class="st0" d="M228.1,160.2c0.1,0.2,0.2,0.5,0.3,0.7c1.2,1.8,2.8,2.8,5,2.8c0.1,0,0.2,0,0.4,0c-0.5-0.2-0.8-0.6-1.1-0.8
					c-0.3-0.2-0.6-0.4-0.9-0.5c-0.5-0.2-1-0.4-1.5-0.6c-0.4-0.2-0.8-0.4-1.1-0.6C228.8,160.8,228.5,160.5,228.1,160.2z"/>
				<path class="st0" d="M239.8,156.5c0,0.1,0.1,0.2,0.1,0.3c0.7,1.2,1.4,2.3,2.4,3.4c0.2,0.2,0.4,0.3,0.6,0.5
					c0.1,0.1,0.2,0.1,0.3,0.1c0.1,0,0.2,0,0.3-0.1c0-0.1,0-0.2,0-0.3c0-0.1-0.1-0.2-0.2-0.2c-1.2-0.9-2.2-2.1-3-3.4
					C240,156.5,240,156.5,239.8,156.5z"/>
				<path class="st0" d="M239.3,156.3c0,0.1,0,0.3,0,0.4c0.3,0.7,0.5,1.4,0.8,2.1c0.3,0.6,0.6,1.3,1,1.9c0.1,0.2,0.3,0.3,0.4,0.4
					c0.1,0.1,0.3,0.1,0.4,0c0.1-0.1,0.1-0.3,0-0.4c-0.2-0.3-0.4-0.5-0.6-0.8c-0.8-1-1.3-2.2-1.8-3.4
					C239.5,156.5,239.4,156.4,239.3,156.3C239.3,156.3,239.3,156.3,239.3,156.3z"/>
				<path class="st0" d="M240.4,156.7c0,0.1,0,0.2,0.1,0.2c0.9,1,1.8,1.9,2.9,2.5c0.2,0.1,0.4,0.2,0.6,0.2c0.1,0,0.3,0,0.4-0.2
					c0.1-0.2,0-0.3-0.2-0.4c-0.1-0.1-0.2-0.1-0.3-0.1c-1.2-0.5-2.2-1.2-3.1-2.1C240.8,156.9,240.6,156.8,240.4,156.7
					C240.5,156.7,240.5,156.7,240.4,156.7z"/>
				<path class="st0" d="M238.8,156.2c0,0.1,0,0.2,0,0.2c0.2,1.5,0.4,3,1,4.4c0.1,0.2,0.2,0.3,0.3,0.4c0,0,0.2,0.1,0.2,0
					c0.1,0,0.1-0.2,0.1-0.2c0-0.1,0-0.2-0.1-0.3c-0.7-1.3-1.1-2.8-1.4-4.3C239,156.4,239,156.3,238.8,156.2
					C238.9,156.2,238.9,156.2,238.8,156.2z"/>
				<path class="st0" d="M241.2,157c0.1,0.1,0.2,0.2,0.3,0.3c0.8,0.6,1.7,1,2.6,1.4c0.2,0.1,0.4,0.1,0.6,0.1c0.1,0,0.2-0.1,0.3-0.2
					c0.1-0.1-0.1-0.3-0.2-0.3c-0.3-0.1-0.6-0.1-0.8-0.3c-0.8-0.3-1.7-0.7-2.5-1C241.4,156.9,241.3,156.9,241.2,157
					C241.2,156.9,241.2,157,241.2,157z"/>
				<path class="st0" d="M236.1,159c0.1-0.9-0.2-1.7-0.9-2.2c-0.2-0.2-0.4-0.3-0.7-0.4c-0.1,0-0.3,0-0.4,0c0.1,0.1,0.1,0.3,0.2,0.4
					c0.3,0.2,0.6,0.4,0.8,0.7c0.4,0.3,0.8,0.8,0.9,1.3C236.1,158.8,236.1,158.9,236.1,159z"/>
				<path class="st0" d="M235.2,159.6c0.2-0.6,0.1-1.2-0.3-1.8c-0.2-0.4-0.6-0.7-0.9-0.9c-0.1,0-0.2-0.1-0.2-0.1c-0.1,0-0.2,0-0.2,0
					c0,0.1,0,0.2,0,0.2c0.1,0.2,0.3,0.3,0.5,0.5c0.1,0.1,0.2,0.2,0.4,0.3C234.9,158.3,235.2,158.9,235.2,159.6z"/>
				<path class="st0" d="M234.3,160.2c0.2-0.5,0.2-1,0-1.5c-0.2-0.5-0.5-0.9-0.9-1.3c-0.1-0.1-0.1-0.1-0.2-0.1c-0.1,0-0.2,0-0.3,0
					c0,0.1,0,0.2,0.1,0.3c0.2,0.2,0.4,0.5,0.6,0.7c0.4,0.4,0.7,0.9,0.8,1.5C234.3,159.9,234.3,160,234.3,160.2z"/>
				<path class="st0" d="M242.4,165.7c0.6-0.9,1-1.9,1.2-3c0.1-0.5,0.1-1,0.1-1.5c0,0,0-0.1,0-0.1c-0.1-0.1-0.1-0.2-0.2-0.3
					c0,0.1-0.1,0.2-0.1,0.3c0,0.4,0,0.7,0,1.1c0,1.2-0.4,2.3-0.9,3.4C242.4,165.6,242.4,165.6,242.4,165.7
					C242.4,165.7,242.4,165.7,242.4,165.7z"/>
				<path class="st0" d="M237.1,158.3c0.1-0.6-0.1-1.1-0.5-1.5c-0.3-0.3-0.6-0.6-1-0.7c0,0-0.1,0-0.1,0c-0.1,0-0.2,0-0.3,0.1
					c0,0.1,0.1,0.2,0.1,0.3c0.2,0.2,0.4,0.3,0.6,0.4C236.5,157.2,237,157.6,237.1,158.3z"/>
				<path class="st0" d="M233.3,160.8c0.4-0.8,0.3-1.6-0.1-2.3c-0.1-0.2-0.3-0.4-0.4-0.5c-0.1-0.1-0.2,0-0.3,0c0,0.1,0,0.2,0,0.3
					c0.1,0.3,0.3,0.5,0.4,0.8C233.3,159.5,233.5,160.1,233.3,160.8z"/>
				<path class="st0" d="M245.7,164.2c0.1-1.5-0.1-2.9-0.8-4.2c0-0.1-0.1-0.2-0.1-0.2c-0.1,0-0.1,0-0.2-0.1c0,0.1,0,0.1-0.1,0.2
					c0,0,0,0.1,0,0.1C245.2,161.3,245.6,162.7,245.7,164.2C245.7,164.2,245.7,164.2,245.7,164.2z"/>
				<path class="st0" d="M247.7,162c-0.3-1.2-1-2.2-1.9-3.1c-0.1-0.1-0.2-0.2-0.3-0.3c-0.1,0-0.2,0-0.3,0c0,0.1,0,0.2,0.1,0.2
					c0.2,0.2,0.5,0.4,0.8,0.7C246.7,160.2,247.2,161.1,247.7,162z"/>
				<path class="st0" d="M239.5,165.4c0.3-0.3,0.7-0.6,0.9-1c0.7-0.8,1.2-1.8,1.5-2.8c0,0,0-0.1,0-0.1c0-0.1-0.1-0.1-0.1-0.2
					c-0.1,0-0.1,0.1-0.2,0.1c-0.1,0.2-0.1,0.4-0.2,0.6c-0.4,1.3-1.1,2.4-2,3.3C239.5,165.3,239.5,165.3,239.5,165.4
					C239.5,165.4,239.5,165.4,239.5,165.4z"/>
				<path class="st0" d="M237.7,164.1c0.5-0.2,0.9-0.4,1.2-0.8c0.5-0.5,1-1,1.3-1.6c0-0.1,0.1-0.1,0.1-0.2c0-0.1,0-0.1,0-0.2
					c-0.1,0-0.1,0-0.2,0.1c0,0,0,0,0,0.1C239.6,162.6,238.8,163.4,237.7,164.1C237.8,164,237.8,164.1,237.7,164.1z"/>
				<path class="st0" d="M232.4,160.9c0.3-0.4,0.4-0.9,0.4-1.3c-0.1-0.3-0.2-0.5-0.3-0.8c0-0.1-0.1-0.1-0.2-0.1c0,0.1,0,0.2,0,0.2
					c0,0.1,0.1,0.3,0.1,0.4C232.5,159.8,232.6,160.3,232.4,160.9z"/>
			</g>
		</g>
		<g>
			<g>
				<path class="st0" d="M267.7,157.8c-0.6,0.2-1.1,0.4-1.6,0.7c-0.5,0.3-1.1,0.6-1.6,0.9c-1,0.5-2,0.8-3.1,0.7
					c-1.1-0.1-2-0.5-2.4-1.5c-0.3-0.7-0.2-1.5,0.1-2.2c0.4-1,1.3-1.7,2.2-2.2c1.2-0.6,2.6-0.9,4-1.2c0.7-0.1,1.3-0.3,1.9-0.6
					c0.5-0.3,0.9-0.7,1.1-1.3c0.2-0.6,0-1.2-0.4-1.7c-0.2-0.2-0.4-0.4-0.5-0.7c1.4,0.8,1.5,2.7,0.2,3.7c-0.6,0.4-1.3,0.6-2,0.7
					c-1.4,0.3-2.7,0.6-3.9,1.2c-0.8,0.4-1.6,0.9-2.1,1.7c-0.4,0.6-0.6,1.3-0.4,2c0.2,1.1,1,1.8,2.2,1.8c0.8,0.1,1.5-0.1,2.2-0.3
					c1.1-0.3,2-1,3-1.5c-0.8,0.2-1.6,0.3-2.4,0.2c0.4-0.3,0.8-0.6,1.3-0.9c0,0,0,0,0-0.1c-0.7,0.2-1.3,0.3-2,0.2
					c1.1,0,2-0.5,2.8-1.2c0.8-0.8,1.7-1.5,2.6-2.3c0.8-0.7,1.7-1.2,2.7-1.7c1.3-0.6,2.6-0.5,3.8,0.3c0.9,0.5,1.6,1.3,2.3,2
					c0.4,0.4,0.8,0.9,1.4,1.2c0,0,0,0-0.1,0c-1.2-0.1-2.4,0.1-3.5,0.5c-1.7,0.6-3.5,0.9-5.2,1.2c-1.3,0.3-2.6,0.7-3.7,1.5
					c-1.2,0.9-2,2-2.1,3.6c0,0.6-0.2,1.2-0.4,1.7c-0.7,1.4-2.6,2-4,1.3c-1.3-0.7-1.6-2.6-0.5-3.6c0.6-0.5,1.2-0.7,2-0.4
					c0.7,0.2,1.1,0.7,1.2,1.4c0.1,0.6-0.1,1.1-0.6,1.5c-0.5,0.3-1,0.4-1.5,0.1c-0.4-0.2-0.5-0.6-0.5-1c0.1-0.4,0.3-0.7,0.6-0.8
					c0.4-0.1,0.8,0.1,0.8,0.4c0,0.2,0,0.3-0.2,0.3c0-0.1,0.1-0.3,0-0.4c-0.1-0.1-0.2-0.2-0.3-0.2c-0.5,0-0.9,0.6-0.6,1
					c0.3,0.6,1.2,0.7,1.7,0.1c0.6-0.7,0.3-1.9-0.6-2.2c-1.2-0.4-2.5,0.5-2.3,1.9c0.1,1.3,1.3,2.2,2.6,1.9c1.3-0.2,2.1-1.1,2.4-2.5
					c0.1-0.5,0.1-0.9,0.2-1.4c0.3-1.3,1-2.2,2.1-2.9C266.6,158.4,267.1,158.1,267.7,157.8z M268.1,155.8c0-0.3-0.3-0.6-0.6-0.6
					c-0.3,0-0.6,0.3-0.6,0.6c0,0.3,0.3,0.6,0.6,0.6C267.8,156.4,268.1,156.1,268.1,155.8z"/>
				<path class="st0" d="M280.7,156.1c0,0-0.1,0-0.1,0c-0.3-0.1-0.7-0.1-1-0.2c-0.6-0.1-1.1-0.4-1.6-0.8c-0.7-0.7-1.4-1.5-2.1-2.1
					c-1-1-2.3-1.4-3.7-1.3c0,0-0.1,0-0.1,0c0,0,0,0,0,0c0.4-0.2,0.7-0.4,1-0.5c0.9-0.4,1.7-0.8,2.7-1c1.2-0.3,2.2,0.2,2.9,1.1
					c0.6,0.8,1,1.8,1.1,2.8c0.1,0.5,0.3,1,0.4,1.5C280.4,155.7,280.6,155.9,280.7,156.1L280.7,156.1z"/>
				<path class="st0" d="M280.7,156.1C280.7,156.1,280.7,156,280.7,156.1c-0.5-0.7-0.6-1.5-0.7-2.3c-0.2-1.6-1-3-2.4-3.9
					c0,0-0.1-0.1-0.2-0.1c1.3-0.2,2.5-0.2,3.6,0.4c1,0.5,1.7,1.2,1.9,2.3c0.1,0.6,0,1.1-0.2,1.7c-0.2,0.7-0.4,1.3-0.5,2
					c-0.1,0.4,0,0.8,0,1.2c-0.4-0.4-0.9-0.7-1.3-1C280.9,156.2,280.8,156.1,280.7,156.1C280.7,156.1,280.7,156.1,280.7,156.1z"/>
				<path class="st0" d="M283.2,159.3c-0.3-0.6-0.5-1.3-0.8-1.9c-0.2-0.4-0.1-0.9,0-1.4c0.2-0.6,0.4-1.3,0.6-1.9
					c0.2-0.7,0.4-1.4,0.1-2.2c-0.2-0.7-0.7-1.2-1.2-1.7c-0.1-0.1-0.2-0.1-0.3-0.2c0.4,0.1,1.2,0.4,1.7,0.8c1.2,0.8,2,1.9,2.1,3.4
					c0.1,0.9-0.2,1.7-0.7,2.4c-0.2,0.3-0.5,0.6-0.7,1C283.6,158.2,283.3,158.8,283.2,159.3z"/>
				<path class="st0" d="M283.1,160.8c-0.1-1.2,0.3-2.2,1-3c0.3-0.4,0.6-0.8,0.9-1.2c0.8-1.1,0.8-2.2,0.4-3.4c0-0.1-0.1-0.2,0-0.3
					c0.2,0.2,0.3,0.4,0.4,0.7c0.4,0.6,0.6,1.1,0.8,1.8c0.3,1.3-0.1,2.3-1,3.1c-0.3,0.3-0.7,0.6-1,0.8
					C284,159.7,283.4,160.1,283.1,160.8z"/>
				<path class="st0" d="M282.4,162.6c0.2-0.5,0.4-1.1,0.7-1.6c0.3-0.6,0.7-0.9,1.2-1.3c0.4-0.3,0.8-0.6,1.2-0.9
					c0.6-0.5,1.1-1.1,1.3-1.9c0.2,1,0.1,2.3-0.4,3.1c-0.4,0.6-1,1-1.6,1.3c-0.5,0.3-1,0.5-1.5,0.7
					C283,162.2,282.7,162.4,282.4,162.6z"/>
				<path class="st0" d="M286,161.9c-0.5,0.9-1.3,1.6-2.1,2.1c-1.4,0.8-2.8,1.2-4.4,1c-0.3,0-0.5-0.1-0.8-0.2c0,0-0.1,0-0.1-0.1
					c-0.3-0.2-0.5-0.5-0.5-0.8c0-0.3,0.3-0.5,0.7-0.5c0.4,0,0.7,0.1,1.1,0.1c0.5,0.1,0.9,0.3,1.4,0.4c0.9,0.1,1.7-0.1,2.5-0.4
					C284.5,163.1,285.3,162.5,286,161.9z"/>
				<path class="st0" d="M286.7,160.2c-0.1,0.2-0.2,0.5-0.3,0.7c-1.2,1.8-2.8,2.8-5,2.8c-0.1,0-0.2,0-0.4,0c0.5-0.2,0.8-0.6,1.1-0.8
					c0.3-0.2,0.6-0.4,0.9-0.5c0.5-0.2,1-0.4,1.5-0.6c0.4-0.2,0.8-0.4,1.1-0.6C286,160.8,286.4,160.5,286.7,160.2z"/>
				<path class="st0" d="M275.1,156.5c0,0.1-0.1,0.2-0.1,0.3c-0.7,1.2-1.4,2.3-2.4,3.4c-0.2,0.2-0.4,0.3-0.6,0.5
					c-0.1,0.1-0.2,0.1-0.3,0.1c-0.1,0-0.2,0-0.3-0.1c0-0.1,0-0.2,0-0.3c0-0.1,0.1-0.2,0.2-0.2c1.2-0.9,2.2-2.1,3-3.4
					C274.9,156.5,274.9,156.5,275.1,156.5z"/>
				<path class="st0" d="M275.6,156.3c0,0.1,0,0.3,0,0.4c-0.3,0.7-0.5,1.4-0.8,2.1c-0.3,0.6-0.6,1.3-1,1.9c-0.1,0.2-0.3,0.3-0.4,0.4
					c-0.1,0.1-0.3,0.1-0.4,0c-0.1-0.1-0.1-0.3,0-0.4c0.2-0.3,0.4-0.5,0.6-0.8c0.8-1,1.3-2.2,1.8-3.4
					C275.3,156.5,275.4,156.4,275.6,156.3C275.5,156.3,275.5,156.3,275.6,156.3z"/>
				<path class="st0" d="M274.4,156.7c0,0.1,0,0.2-0.1,0.2c-0.9,1-1.8,1.9-2.9,2.5c-0.2,0.1-0.4,0.2-0.6,0.2c-0.1,0-0.3,0-0.4-0.2
					c-0.1-0.2,0-0.3,0.2-0.4c0.1-0.1,0.2-0.1,0.3-0.1c1.2-0.5,2.2-1.2,3.1-2.1C274.1,156.9,274.2,156.8,274.4,156.7
					C274.4,156.7,274.4,156.7,274.4,156.7z"/>
				<path class="st0" d="M276,156.2c0,0.1,0,0.2,0,0.2c-0.2,1.5-0.4,3-1,4.4c-0.1,0.2-0.2,0.3-0.3,0.4c0,0-0.2,0.1-0.2,0
					c-0.1,0-0.1-0.2-0.1-0.2c0-0.1,0-0.2,0.1-0.3c0.7-1.3,1.1-2.8,1.4-4.3C275.8,156.4,275.9,156.3,276,156.2
					C275.9,156.2,276,156.2,276,156.2z"/>
				<path class="st0" d="M273.6,157c-0.1,0.1-0.2,0.2-0.3,0.3c-0.8,0.6-1.7,1-2.6,1.4c-0.2,0.1-0.4,0.1-0.6,0.1
					c-0.1,0-0.2-0.1-0.3-0.2c-0.1-0.1,0.1-0.3,0.2-0.3c0.3-0.1,0.6-0.1,0.8-0.3c0.8-0.3,1.7-0.7,2.5-1
					C273.4,156.9,273.5,156.9,273.6,157C273.6,156.9,273.6,157,273.6,157z"/>
				<path class="st0" d="M278.7,159c-0.1-0.9,0.2-1.7,0.9-2.2c0.2-0.2,0.4-0.3,0.7-0.4c0.1,0,0.3,0,0.4,0c-0.1,0.1-0.1,0.3-0.2,0.4
					c-0.3,0.2-0.6,0.4-0.8,0.7c-0.4,0.3-0.8,0.8-0.9,1.3C278.8,158.8,278.8,158.9,278.7,159z"/>
				<path class="st0" d="M279.6,159.6c-0.2-0.6-0.1-1.2,0.3-1.8c0.2-0.4,0.6-0.7,0.9-0.9c0.1,0,0.2-0.1,0.2-0.1c0.1,0,0.2,0,0.2,0
					c0,0.1,0,0.2,0,0.2c-0.1,0.2-0.3,0.3-0.5,0.5c-0.1,0.1-0.2,0.2-0.4,0.3C280,158.3,279.6,158.9,279.6,159.6z"/>
				<path class="st0" d="M280.6,160.2c-0.2-0.5-0.2-1,0-1.5c0.2-0.5,0.5-0.9,0.9-1.3c0.1-0.1,0.1-0.1,0.2-0.1c0.1,0,0.2,0,0.3,0
					c0,0.1,0,0.2-0.1,0.3c-0.2,0.2-0.4,0.5-0.6,0.7c-0.4,0.4-0.7,0.9-0.8,1.5C280.6,159.9,280.6,160,280.6,160.2z"/>
				<path class="st0" d="M272.5,165.7c-0.6-0.9-1-1.9-1.2-3c-0.1-0.5-0.1-1-0.1-1.5c0,0,0-0.1,0-0.1c0.1-0.1,0.1-0.2,0.2-0.3
					c0,0.1,0.1,0.2,0.1,0.3c0,0.4,0,0.7,0,1.1c0,1.2,0.4,2.3,0.9,3.4C272.4,165.6,272.5,165.6,272.5,165.7
					C272.5,165.7,272.5,165.7,272.5,165.7z"/>
				<path class="st0" d="M277.8,158.3c-0.1-0.6,0.1-1.1,0.5-1.5c0.3-0.3,0.6-0.6,1-0.7c0,0,0.1,0,0.1,0c0.1,0,0.2,0,0.3,0.1
					c0,0.1-0.1,0.2-0.1,0.3c-0.2,0.2-0.4,0.3-0.6,0.4C278.3,157.2,277.9,157.6,277.8,158.3z"/>
				<path class="st0" d="M281.5,160.8c-0.4-0.8-0.3-1.6,0.1-2.3c0.1-0.2,0.3-0.4,0.4-0.5c0.1-0.1,0.2,0,0.3,0c0,0.1,0,0.2,0,0.3
					c-0.1,0.3-0.3,0.5-0.4,0.8C281.6,159.5,281.3,160.1,281.5,160.8z"/>
				<path class="st0" d="M269.2,164.2c-0.1-1.5,0.1-2.9,0.8-4.2c0-0.1,0.1-0.2,0.1-0.2c0.1,0,0.1,0,0.2-0.1c0,0.1,0,0.1,0.1,0.2
					c0,0,0,0.1,0,0.1C269.6,161.3,269.2,162.7,269.2,164.2C269.2,164.2,269.2,164.2,269.2,164.2z"/>
				<path class="st0" d="M267.2,162c0.3-1.2,1-2.2,1.9-3.1c0.1-0.1,0.2-0.2,0.3-0.3c0.1,0,0.2,0,0.3,0c0,0.1,0,0.2-0.1,0.2
					c-0.2,0.2-0.5,0.4-0.8,0.7C268.2,160.2,267.6,161.1,267.2,162z"/>
				<path class="st0" d="M275.3,165.4c-0.3-0.3-0.7-0.6-0.9-1c-0.7-0.8-1.2-1.8-1.5-2.8c0,0,0-0.1,0-0.1c0-0.1,0.1-0.1,0.1-0.2
					c0.1,0,0.1,0.1,0.2,0.1c0.1,0.2,0.1,0.4,0.2,0.6c0.4,1.3,1.1,2.4,2,3.3C275.3,165.3,275.4,165.3,275.3,165.4
					C275.4,165.4,275.4,165.4,275.3,165.4z"/>
				<path class="st0" d="M277.1,164.1c-0.5-0.2-0.9-0.4-1.2-0.8c-0.5-0.5-1-1-1.3-1.6c0-0.1-0.1-0.1-0.1-0.2c0-0.1,0-0.1,0-0.2
					c0.1,0,0.1,0,0.2,0.1c0,0,0,0,0,0.1C275.3,162.6,276.1,163.4,277.1,164.1C277.1,164,277.1,164.1,277.1,164.1z"/>
				<path class="st0" d="M282.5,160.9c-0.3-0.4-0.4-0.9-0.4-1.3c0.1-0.3,0.2-0.5,0.3-0.8c0-0.1,0.1-0.1,0.2-0.1c0,0.1,0,0.2,0,0.2
					c0,0.1-0.1,0.3-0.1,0.4C282.3,159.8,282.2,160.3,282.5,160.9z"/>
				<path class="st0" d="M267,155.8c0-0.3,0.2-0.5,0.5-0.5c0.3,0,0.5,0.2,0.5,0.5c0,0.3-0.2,0.5-0.5,0.5
					C267.2,156.3,267,156,267,155.8z"/>
			</g>
		</g>
		<g>
			<g>
				<path class="st0" d="M49,162c1.2,0.1,2.4,0.3,3.6,0.3c34.9,0,69.9,0,104.8,0c4.2,0,8.6-0.9,12.1,2.6c0-2.4,0-4.4,0-6.7
					c-3.6,3.5-8.1,2.6-12.3,2.6c-34.8,0-69.7,0-104.5,0c-1.2,0-2.3,0-3.5,0C49.1,161.2,49,161.6,49,162z"/>
			</g>
			<g>
				<path class="st0" d="M171.4,159.9c-1.7,4.2,2.3,8.3,6.2,8.8c5,0.6,9.5-0.9,13.2-4.2c3.6-3.2,6.7-6.9,10.5-10
					c2.8-2.3,6-4.4,9.4-5.7c4.5-1.7,9.7,0.7,12.1,4.7c2.2,3.7,1.8,8.3-1.2,11.4c-2.3,2.4-5.1,3.7-8.5,2.9c-2.8-0.7-4.9-2.2-5.7-5.1
					c-0.7-2.7,0.2-4.8,2.4-5.8c2.3-1,4.9-0.2,6.3,1.9c0.6,0.9,1.2,1.9,1.8,2.8c0.1,0.2,0.5,0.1,0.7,0.2c0.8-2.8-0.8-5.4-3.7-6.4
					c-2.7-0.9-5.8,0-7.5,2.3c-1.7,2.4-1.5,5.7,0.6,8.3c2.4,3,6.3,4,10.4,2.7c4.1-1.3,7.1-5,7.4-9.2c0.6-8-6.7-14.3-14.8-12.8
					c-4.9,1-8.6,3.8-12,7.2c-3.2,3.2-6.2,6.6-9.5,9.6c-1.7,1.6-3.9,2.6-6.1,3.6c3.4-2.6,5.8-5.7,5.5-10.2c-0.1-1.3-0.8-2.5-1.3-3.8
					c-0.4,0.1-0.8,0.2-1.2,0.3c0,1,0,2,0.2,3c0.7,4.3-0.6,7.6-3.9,9.7C177.1,169.4,172.3,167.1,171.4,159.9z"/>
			</g>
			<g>
				<path class="st0" d="M192.1,152.5c-0.4,3.1-0.8,5.9-1.1,8.5C193.9,159.1,194.8,154.4,192.1,152.5z"/>
			</g>
		</g>
		<g>
			<g>
				<path class="st0" d="M465.7,162c-1.2,0.1-2.4,0.3-3.6,0.3c-34.9,0-69.9,0-104.8,0c-4.2,0-8.6-0.9-12.1,2.6c0-2.4,0-4.4,0-6.7
					c3.6,3.5,8.1,2.6,12.3,2.6c34.8,0,69.7,0,104.5,0c1.2,0,2.3,0,3.5,0C465.7,161.2,465.7,161.6,465.7,162z"/>
			</g>
			<g>
				<path class="st0" d="M343.3,159.9c1.7,4.2-2.3,8.3-6.2,8.8c-5,0.6-9.5-0.9-13.2-4.2c-3.6-3.2-6.7-6.9-10.5-10
					c-2.8-2.3-6-4.4-9.4-5.7c-4.5-1.7-9.7,0.7-12.1,4.7c-2.2,3.7-1.8,8.3,1.2,11.4c2.3,2.4,5.1,3.7,8.5,2.9c2.8-0.7,4.9-2.2,5.7-5.1
					c0.7-2.7-0.2-4.8-2.4-5.8c-2.3-1-4.9-0.2-6.3,1.9c-0.6,0.9-1.2,1.9-1.8,2.8c-0.1,0.2-0.5,0.1-0.7,0.2c-0.8-2.8,0.8-5.4,3.7-6.4
					c2.7-0.9,5.8,0,7.5,2.3c1.7,2.4,1.5,5.7-0.6,8.3c-2.4,3-6.3,4-10.4,2.7c-4.1-1.3-7.1-5-7.4-9.2c-0.6-8,6.7-14.3,14.8-12.8
					c4.9,1,8.6,3.8,12,7.2c3.2,3.2,6.2,6.6,9.5,9.6c1.7,1.6,3.9,2.6,6.1,3.6c-3.4-2.6-5.8-5.7-5.5-10.2c0.1-1.3,0.8-2.5,1.3-3.8
					c0.4,0.1,0.8,0.2,1.2,0.3c0,1,0,2-0.2,3c-0.7,4.3,0.6,7.6,3.9,9.7C337.7,169.4,342.4,167.1,343.3,159.9z"/>
			</g>
			<g>
				<path class="st0" d="M322.7,152.5c0.4,3.1,0.8,5.9,1.1,8.5C320.9,159.1,319.9,154.4,322.7,152.5z"/>
			</g>
		</g>
	</g>
</g>
<rect x="205.1" y="12.5" class="st0" width="104.3" height="4.6"/>
<rect x="48.7" y="61.7" class="st0" width="104.3" height="4.6"/>
<rect x="360.1" y="61.7" class="st0" width="104.3" height="4.6"/>
<g>
	<text transform="matrix(1 0 0 1 231.947 52.4727)" class="st0 st1 st2">1er</text>
</g>
<text transform="matrix(1 0 0 1 71.1389 104.3623)" class="st3 st1 st2">2do</text>
<g>
	<text transform="matrix(1 0 0 1 385.9241 104.3623)" class="st0 st1 st2">3er</text>
</g>
<g>
	<text transform="matrix(1 0 0 1 64.7288 139.1392)" class="st0 st4 st5">$8,000</text>
</g>
<g>
	<text transform="matrix(1 0 0 1 216.1228 113.9028)" class="st0 st4 st5">$10,000</text>
</g>
<g>
	<text transform="matrix(1 0 0 1 377.4309 139.1392)" class="st0 st4 st5">$5,000</text>
</g>
</svg>
