<?xml version="1.0" encoding="utf-8"?>
<!-- Generator: Adobe Illustrator 21.1.0, SVG Export Plug-In . SVG Version: 6.00 Build 0)  -->
<svg version="1.1" id="Capa_1" xmlns="http://www.w3.org/2000/svg" xmlns:xlink="http://www.w3.org/1999/xlink" x="0px" y="0px"
	 viewBox="0 0 500 200" style="enable-background:new 0 0 500 200;" xml:space="preserve">
<style type="text/css">
	.st0{fill:#F6F2EE;}
	.st1{fill:#F2EDE7;}
	.st2{fill:#527983;}
	.st3{fill:#FEFFFF;}
	.st4{fill:#FFFFFF;}
</style>
<g>
	<g>
		<path class="st0" d="M169.6,81.6h-3.6V88h3.6c2.3,0,3.6-1.4,3.6-3.2v-0.1C173.4,82.7,171.9,81.6,169.6,81.6z"/>
		<path class="st0" d="M317,81.3c-3.7,0-6.3,2.9-6.3,6.5v0.1c0,3.6,2.6,6.6,6.3,6.6s6.3-2.9,6.3-6.5v-0.1
			C323.4,84.3,320.7,81.3,317,81.3z"/>
		<path class="st0" d="M200.2,81.6h-4.6v6h4.7c2.2,0,3.5-1.2,3.5-3v-0.1C203.8,82.6,202.4,81.6,200.2,81.6z"/>
		<path class="st0" d="M448.7,89.3c-1.9-0.3-4.1-0.8-5.7-0.2c-2.8,1.1-5.3,3-8.1,4.5c-0.8,0.4-1.7,0.7-2.6,0.7c-9.3,0-18.5,0-27.8,0
			c-0.7,0-1.5-0.3-2.2-0.4c0-0.5,0.1-1,0.1-1.5c8.6,0,17.2,0,25.8,0c0.1-0.5,0.1-1,0.2-1.5c-1.1-0.3-2.3-0.7-3.4-0.7
			c-7-0.1-13.9-0.1-20.9-0.1c-1.2,0-2.3-0.3-3.5-0.4c0-0.4,0-0.8,0-1.1c9.2-0.2,18.4-0.4,27.7-0.5c0-0.4,0.1-0.9,0.1-1.3
			c-1.1-0.2-2.2-0.6-3.3-0.6c-7.2-0.1-14.3-0.2-21.5-0.3c-1,0-2-0.3-3-0.9c9.2-1.3,18.5,0,27.7-1.3c0-0.5,0-1,0-1.5
			c-8.6-0.9-17.2-0.2-25.8-0.7c0-0.3-0.1-0.6-0.1-1c0.8-0.2,1.5-0.6,2.3-0.6c9.3,0,18.5-0.1,27.8,0c1,0,2.2,0.6,3.1,1.1
			c2.8,1.5,5.4,3.4,8.3,4.6c1.2,0.5,3.3,0.2,4.3-0.6c2-1.4,4-1.6,6.1-1.5v-8.5h0v-3.1c-8.9-0.2-16.1-7.5-16.1-16.4c0,0,0-0.1,0-0.1
			H90.8c0,0,0,0.1,0,0.1c0,9.1-7.3,16.4-16.4,16.4c0,0,0,0,0,0v3h0v8.7c0.6,0,1.2-0.1,1.8-0.1c1.8-0.1,3.7,0.9,5.5,1.2
			c1.9,0.3,4.1,0.8,5.7,0.2c2.8-1.1,5.3-3,8.1-4.5c0.8-0.4,1.7-0.7,2.6-0.7c9.3,0,18.5,0,27.8,0c0.7,0,1.5,0.3,2.2,0.4
			c0,0.5-0.1,1-0.1,1.5c-8.6,0-17.2,0-25.8,0c-0.1,0.5-0.1,1-0.2,1.5c1.1,0.3,2.3,0.7,3.4,0.7c7,0.1,13.9,0.1,20.9,0.1
			c1.2,0,2.3,0.3,3.5,0.4c0,0.4,0,0.8,0,1.1c-9.2,0.2-18.4,0.4-27.7,0.5c0,0.4-0.1,0.9-0.1,1.3c1.1,0.2,2.2,0.6,3.3,0.6
			c7.2,0.1,14.3,0.2,21.5,0.3c1,0,2,0.3,3,0.9c-9.2,1.3-18.5,0-27.7,1.3c0,0.5,0,1,0,1.5c8.6,0.9,17.2,0.2,25.8,0.7
			c0,0.3,0.1,0.6,0.1,1c-0.8,0.2-1.5,0.6-2.3,0.6c-9.3,0-18.5,0.1-27.8,0c-1,0-2.2-0.6-3.1-1.1c-2.8-1.5-5.4-3.4-8.3-4.6
			c-1.2-0.5-3.3-0.2-4.3,0.6c-2.5,1.8-5,1.7-7.7,1.3c0,0-0.1,0-0.1,0v9.3h0v1.3c8.9,0.2,16.1,7.5,16.1,16.4c0,0,0,0.1,0,0.1h347.5
			c0,0,0-0.1,0-0.1c0-9.1,7.3-16.4,16.4-16.4c0,0,0,0,0,0v-1.3h0v-9.3c0,0,0,0,0,0C452.5,90.6,450.6,89.6,448.7,89.3z M178,84.7
			c0,4.8-3.8,7.4-8.5,7.4h-3.5v6.3h-4.6V77.4h8.5C175,77.4,178,80.4,178,84.7L178,84.7z M203.7,98.4l-4.5-6.7h-0.1h-3.6v6.7H191
			V77.4h9.6c2.7,0,4.7,0.7,6.1,2.1c1.2,1.2,1.8,2.8,1.8,4.8v0.1c0,3.4-1.8,5.5-4.5,6.5l5.1,7.5H203.7z M238.1,98.4h-15.9V77.4H238
			v4.1h-11.2v4.2h9.9v4.1h-9.9v4.4h11.4V98.4z M272.7,98.4h-4.6V84.7l-5.9,8.9h-0.1l-5.8-8.8v13.6h-4.5V77.4h5l5.5,8.8l5.5-8.8h5
			V98.4z M292.1,98.4h-4.6V77.4h4.6V98.4z M328.2,87.9c0,5.9-4.7,10.8-11.1,10.8s-11.1-4.8-11.1-10.8v-0.1c0-5.9,4.7-10.8,11.1-10.8
			C323.5,77.1,328.2,81.9,328.2,87.9L328.2,87.9z M356.8,92.2c0,4.2-3.2,6.5-7.7,6.5c-3.2,0-6.4-1.1-8.9-3.3l2.7-3.3
			c1.9,1.6,3.9,2.5,6.2,2.5c1.9,0,3-0.7,3-2v-0.1c0-1.2-0.7-1.8-4.2-2.7c-4.2-1.1-6.9-2.2-6.9-6.4v-0.1c0-3.8,3-6.3,7.3-6.3
			c3,0,5.6,1,7.8,2.7l-2.4,3.5c-1.9-1.3-3.7-2.1-5.4-2.1c-1.8,0-2.7,0.8-2.7,1.8v0.1c0,1.4,0.9,1.8,4.5,2.7
			C354.4,86.9,356.8,88.5,356.8,92.2L356.8,92.2z"/>
	</g>
</g>
</svg>
