<svg enable-background="new 0 0 500 200" viewBox="0 0 500 200" xmlns="http://www.w3.org/2000/svg"><g fill="#f6f2ee"><path d="m262.2 102.7c-1.9 1.9-3.7 3.7-5.6 5.6.1.1.2.2.3.4.3-.2.6-.3.9-.6 1.5-1.5 3-3 4.6-4.5.3-.3.6-.4.9-.7.1.1.2.2.2.3-2 2-3.9 4.1-5.9 6.1.1.1.2.2.3.3.3-.2.6-.3.8-.6 1.6-1.5 3.2-3.1 4.8-4.6.2-.2.5-.4.8-.5-1.7 2.3-4 4-5.7 6.3.1.1.2.2.3.3 2.1-1.7 3.8-3.7 5.8-5.5.1.1.2.1.2.2-.1.2-.2.4-.4.6-2 2-4 4-6 6-.2.2-.6.3-.9.4-.9.3-1.9.4-2.8.8-.4.1-.8.7-.8 1.1-.2.9-.7 1.5-1.4 2-3.4 2.5-6.3 5.4-8.3 9.2-.1.2-.2.4-.2.6-.7 2.3-2.1 3.2-4.5 2.9-.3 0-.7-.1-1.1-.1 0-.7-.1-1.5-.1-2.3 0-1.4.9-2.7 2.3-3.1 2.2-.7 4.1-1.8 5.7-3.4 1.8-1.8 3.3-3.8 5-5.7.4-.4 1-.6 1.5-.9.5-.4 1.1-.7 1.3-1.2.4-.9.5-1.8.8-2.7.1-.3.2-.5.4-.7 2-2 4-4 6-6 .2-.2.4-.3.6-.4 0 .2.1.3.2.4z"/><path d="m238.7 105.1c1.9 1.9 3.7 3.7 5.6 5.6.1-.1.2-.2.4-.3-.2-.3-.3-.6-.6-.9-1.5-1.5-3-3-4.5-4.6-.3-.3-.4-.6-.7-.9.1-.1.2-.2.3-.2 2 2 4.1 3.9 6.1 5.9.1-.1.2-.2.3-.3-.2-.3-.3-.6-.6-.8-1.5-1.6-3.1-3.2-4.6-4.8-.2-.2-.4-.5-.5-.8 2.3 1.7 4 4 6.3 5.7.1-.1.2-.2.3-.3-1.7-2.1-3.7-3.8-5.5-5.8.1-.1.1-.2.2-.2.2.1.4.2.6.4l6 6c.2.2.3.6.4.9.3.9.4 1.9.8 2.8.1.4.7.8 1.1.8.9.2 1.5.7 2 1.4 2.5 3.4 5.4 6.3 9.2 8.3.2.1.4.2.6.2 2.3.7 3.2 2.1 2.9 4.5 0 .3-.1.7-.1 1.1-.7 0-1.5.1-2.3.1-1.4 0-2.7-.9-3.1-2.3-.7-2.2-1.8-4.1-3.4-5.7-1.8-1.8-3.8-3.3-5.7-5-.4-.4-.6-1-.9-1.5-.4-.5-.7-1.1-1.2-1.3-.9-.4-1.8-.5-2.7-.8-.3-.1-.5-.2-.7-.4-2-2-4-4-6-6-.2-.2-.3-.4-.4-.6.2-.1.3-.2.4-.2z"/><path d="m475.9 118c-1.4.1-2.8.3-4.2.3-48.6 0-97.3 0-145.9.1-1.7 0-3.3 1.2-5.1 1.4-1.4.2-3.3.3-4.4-.4-1.4-.9-2-1.4-3.3.3-2.6 3.5-5.8 3.5-8.4.3-1.9-2.4-2.6-2.2-4.2.7-1.6 3.1-5 4.7-8.2 4-3.3-.8-5.7-3.7-5.7-7.1-.1-3.4 2.2-6.4 5.6-7.2 3.3-.9 6.7.8 8.5 4.1 1.5 2.8 2.3 2.9 4.3.4 2.3-2.9 5.8-3.1 8-.1 1.2 1.7 1.9 2.3 3.7.6.8-.7 2.7-.6 4-.4 1.8.3 3.6 1.5 5.4 1.5 48.6.1 97.3.1 145.9.1 1.3 0 2.7.1 4 .2-.1.4-.1.8 0 1.2z"/><path d="m23.9 116.8c1.4-.1 2.8-.3 4.2-.3 48.6 0 97.3 0 145.9-.1 1.7 0 3.3-1.2 5.1-1.4 1.4-.2 3.3-.3 4.4.4 1.4.9 2 1.4 3.3-.3 2.6-3.5 5.8-3.5 8.4-.3 1.9 2.4 2.6 2.2 4.2-.7 1.6-3.1 5-4.7 8.2-4 3.3.8 5.7 3.7 5.7 7.1.1 3.4-2.2 6.4-5.6 7.2-3.3.9-6.7-.8-8.5-4.1-1.5-2.8-2.3-2.9-4.3-.4-2.3 2.9-5.8 3.1-8 .1-1.2-1.7-1.9-2.3-3.7-.6-.8.7-2.7.6-4 .4-1.8-.3-3.6-1.5-5.4-1.5-48.6-.1-97.3-.1-145.9-.1-1.3 0-2.7-.1-4-.2 0-.3 0-.7 0-1.2z"/></g></svg>